<svg xmlns="http://www.w3.org/2000/svg" viewBox="0 0 173.19 159.04"><defs><style>.cls-1{fill:#381a0c;}.cls-2{fill:#7a0909;}.cls-3{fill:#918078;}.cls-4{fill:#f3f1f0;}.cls-5{fill:#fff;}.cls-6,.cls-7{fill:none;stroke:#7a0909;stroke-miterlimit:10;stroke-width:3px;}.cls-7{stroke-dasharray:2.01 2.01;}</style></defs><title>Asset 8</title><g id="Layer_2" data-name="Layer 2"><g id="baseball"><polygon class="cls-1" points="153 116.89 153 32.6 7 32.6 7 116.89 80 159.04 153 116.89"/><polygon class="cls-2" points="146 113.89 146 29.6 0 29.6 0 113.89 73 156.04 146 113.89"/><path class="cls-3" d="M13.1,144c-.4-4,2.67-6.75,8.8-8.46,0,0,4.51.48,10.24-4.95C76.53,88.41,163.11-3.92,157.28,1.69c3.12-3,9.31-1.71,12.55,1.65h0c3.24,3.37,4.78,9.14,1.66,12.15,0,0-86.66,80.55-132.47,123.16-6.26,5.82-6.15,9.85-6.15,9.85-.81,5.4-3.3,8.24-8,7.7C21.75,159.21,10,147,13.1,144Z"/><circle class="cls-4" cx="48" cy="58.6" r="17"/><path class="cls-5" d="M48,75.1a16.47,16.47,0,0,1-10.37-3.69,18,18,0,0,0-.55-25.16,16.44,16.44,0,0,1,21.84,0,18,18,0,0,0-.55,25.16A16.47,16.47,0,0,1,48,75.1Z"/><path class="cls-2" d="M48,42.6a15.92,15.92,0,0,1,10.19,3.68A18.54,18.54,0,0,0,53,59.1a18.35,18.35,0,0,0,4.64,12.25,15.92,15.92,0,0,1-19.28,0A18.35,18.35,0,0,0,43,59.1a18.54,18.54,0,0,0-5.19-12.82A15.92,15.92,0,0,1,48,42.6m0-1a16.91,16.91,0,0,0-11.65,4.64,17.47,17.47,0,0,1,.54,25.21,16.95,16.95,0,0,0,22.22,0,17.47,17.47,0,0,1,.54-25.21A16.91,16.91,0,0,0,48,41.6Z"/><path class="cls-5" d="M54,59.1a17.47,17.47,0,0,1,5.65-12.86,16.95,16.95,0,0,0-23.3,0,17.47,17.47,0,0,1,.54,25.21,16.95,16.95,0,0,0,22.22,0A17.43,17.43,0,0,1,54,59.1Z"/><path class="cls-6" d="M59.11,71.45c-.24-.24-.47-.48-.69-.73"/><path class="cls-7" d="M57.17,69.15a17.47,17.47,0,0,1,1.09-21.47"/><path class="cls-6" d="M58.94,46.94c.23-.24.47-.47.71-.7"/><path class="cls-6" d="M36.35,46.24c.24.23.48.46.71.7"/><path class="cls-7" d="M38.38,48.46A17.47,17.47,0,0,1,38.23,70"/><path class="cls-6" d="M37.58,70.72c-.22.25-.45.49-.69.73"/></g></g></svg>