<svg xmlns="http://www.w3.org/2000/svg" viewBox="0 0 1181.18 739.5"><defs><style>.cls-1{fill:#e3dad1;}.cls-2{fill:#c2b4ae;}.cls-3{fill:#f5f1ee;}.cls-4{fill:#d4ceca;}.cls-5{fill:#f3f5f3;}</style></defs><title>Asset 22</title><g id="Layer_2" data-name="Layer 2"><g id="bg"><path class="cls-1" d="M41.75,0H1139.52a41.22,41.22,0,0,1,41.22,41.22V506.57a0,0,0,0,1,0,0H.54a0,0,0,0,1,0,0V41.22A41.22,41.22,0,0,1,41.75,0Z"/><polygon class="cls-2" points="2.69 213.77 14.82 193.77 26.94 213.77 39.07 193.77 51.2 213.77 63.32 193.77 75.45 213.77 87.58 193.77 99.7 213.77 111.83 193.77 123.96 213.77 136.09 193.77 148.21 213.77 160.34 193.77 172.47 213.77 184.59 193.77 196.72 213.77 208.85 193.77 220.98 213.77 233.1 193.77 245.23 213.77 257.36 193.77 269.49 213.77 281.62 193.77 293.74 213.77 305.87 193.77 318 213.77 330.13 193.77 342.25 213.77 354.38 193.77 366.51 213.77 378.64 193.77 390.76 213.77 402.89 193.77 415.02 213.77 427.15 193.77 439.28 213.77 451.41 193.77 463.53 213.77 475.66 193.77 487.78 213.77 499.9 193.77 512.03 213.77 524.15 193.77 536.28 213.77 548.41 193.77 560.53 213.77 572.65 193.77 584.78 213.77 596.91 193.77 609.04 213.77 621.16 193.77 633.29 213.77 645.42 193.77 657.54 213.77 669.67 193.77 681.8 213.77 693.93 193.77 706.05 213.77 718.18 193.77 730.31 213.77 742.44 193.77 754.57 213.77 766.7 193.77 778.83 213.77 790.95 193.77 803.08 213.77 815.21 193.77 827.34 213.77 839.47 193.77 851.6 213.77 863.73 193.77 875.86 213.77 887.99 193.77 900.12 213.77 912.25 193.77 924.38 213.77 936.51 193.77 948.64 213.77 960.78 193.77 972.91 213.77 985.04 193.77 997.17 213.77 1009.29 193.77 1021.43 213.77 1033.55 193.77 1045.68 213.77 1057.82 193.77 1069.95 213.77 1082.08 193.77 1094.21 213.77 1106.35 193.77 1118.48 213.77 1130.61 193.77 1142.74 213.77 1154.87 193.77 1167.01 213.77 1179.14 193.77 1181.18 197.13 1181.18 185.73 1178.64 181.55 1166.51 201.55 1154.37 181.55 1142.24 201.55 1130.11 181.55 1117.98 201.55 1105.85 181.55 1093.71 201.55 1081.58 181.55 1069.45 201.55 1057.32 181.55 1045.18 201.55 1033.05 181.55 1020.93 201.55 1008.79 181.55 996.67 201.55 984.54 181.55 972.41 201.55 960.28 181.55 948.14 201.55 936.01 181.55 923.88 201.55 911.75 181.55 899.62 201.55 887.49 181.55 875.36 201.55 863.23 181.55 851.1 201.55 838.97 181.55 826.84 201.55 814.71 181.55 802.58 201.55 790.45 181.55 778.33 201.55 766.2 181.55 754.07 201.55 741.94 181.55 729.81 201.55 717.68 181.55 705.55 201.56 693.43 181.55 681.3 201.55 669.17 181.56 657.04 201.56 644.92 181.55 632.79 201.55 620.66 181.56 608.54 201.56 596.41 181.56 584.28 201.55 572.15 181.56 560.03 201.56 547.91 181.56 535.78 201.56 523.65 181.55 511.53 201.56 499.4 181.56 487.28 201.56 475.16 181.56 463.03 201.56 450.91 181.55 438.78 201.55 426.65 181.55 414.52 201.55 402.39 181.55 390.26 201.55 378.14 181.55 366.01 201.55 353.88 181.55 341.75 201.56 329.63 181.55 317.5 201.55 305.37 181.55 293.24 201.56 281.12 181.55 268.99 201.55 256.86 181.55 244.73 201.56 232.6 181.55 220.48 201.56 208.35 181.55 196.22 201.55 184.09 181.56 171.97 201.56 159.84 181.55 147.71 201.55 135.59 181.55 123.46 201.56 111.33 181.56 99.2 201.56 87.08 181.55 74.95 201.55 62.82 181.55 50.7 201.56 38.57 181.56 26.44 201.56 14.32 181.55 2.19 201.55 0.98 199.56 0.98 210.95 2.69 213.77"/><path class="cls-2" d="M1165.56,9.09a41,41,0,0,0-12.15-6.67l8.1,13.35Z"/><polygon class="cls-2" points="3.69 249.77 15.82 229.77 27.94 249.77 40.07 229.77 52.2 249.77 64.32 229.77 76.45 249.77 88.58 229.77 100.7 249.77 112.83 229.77 124.96 249.77 137.09 229.77 149.21 249.77 161.34 229.77 173.47 249.77 185.59 229.77 197.72 249.77 209.85 229.77 221.98 249.77 234.1 229.77 246.23 249.77 258.36 229.77 270.49 249.77 282.62 229.77 294.74 249.77 306.87 229.77 319 249.77 331.13 229.77 343.25 249.77 355.38 229.77 367.51 249.77 379.64 229.77 391.76 249.77 403.89 229.77 416.02 249.77 428.15 229.77 440.28 249.77 452.41 229.77 464.53 249.77 476.66 229.77 488.78 249.77 500.9 229.77 513.03 249.77 525.15 229.77 537.28 249.77 549.41 229.77 561.53 249.77 573.65 229.77 585.78 249.77 597.91 229.77 610.04 249.77 622.16 229.77 634.29 249.77 646.42 229.77 658.54 249.77 670.67 229.77 682.8 249.77 694.93 229.77 707.05 249.77 719.18 229.77 731.31 249.77 743.44 229.77 755.57 249.77 767.7 229.77 779.83 249.77 791.95 229.77 804.08 249.77 816.21 229.77 828.34 249.77 840.47 229.77 852.6 249.77 864.73 229.77 876.86 249.77 888.99 229.77 901.12 249.77 913.25 229.77 925.38 249.77 937.51 229.77 949.64 249.77 961.78 229.77 973.91 249.77 986.04 229.77 998.17 249.77 1010.29 229.77 1022.43 249.77 1034.55 229.77 1046.68 249.77 1058.82 229.77 1070.95 249.77 1083.08 229.77 1095.21 249.77 1107.35 229.77 1119.48 249.77 1131.61 229.77 1143.74 249.77 1155.87 229.77 1168.01 249.77 1180.14 229.77 1181.18 231.48 1181.18 220.08 1179.64 217.55 1167.51 237.55 1155.37 217.55 1143.24 237.55 1131.11 217.55 1118.98 237.55 1106.85 217.55 1094.71 237.55 1082.58 217.55 1070.45 237.55 1058.32 217.55 1046.18 237.55 1034.05 217.55 1021.93 237.55 1009.79 217.55 997.67 237.55 985.54 217.55 973.41 237.55 961.28 217.55 949.14 237.55 937.01 217.55 924.88 237.55 912.75 217.55 900.62 237.55 888.49 217.55 876.36 237.55 864.23 217.55 852.1 237.55 839.97 217.55 827.84 237.55 815.71 217.55 803.58 237.55 791.45 217.55 779.33 237.55 767.2 217.55 755.07 237.55 742.94 217.55 730.81 237.55 718.68 217.55 706.55 237.56 694.43 217.55 682.3 237.55 670.17 217.56 658.04 237.56 645.92 217.55 633.79 237.55 621.66 217.56 609.54 237.56 597.41 217.56 585.28 237.55 573.15 217.56 561.03 237.56 548.91 217.56 536.78 237.56 524.65 217.55 512.53 237.56 500.4 217.56 488.28 237.56 476.16 217.56 464.03 237.56 451.91 217.55 439.78 237.55 427.65 217.55 415.52 237.55 403.39 217.55 391.26 237.55 379.14 217.55 367.01 237.55 354.88 217.55 342.75 237.56 330.63 217.55 318.5 237.55 306.37 217.55 294.24 237.56 282.12 217.55 269.99 237.55 257.86 217.55 245.73 237.56 233.6 217.55 221.48 237.56 209.35 217.55 197.22 237.55 185.09 217.56 172.97 237.56 160.84 217.55 148.71 237.55 136.59 217.55 124.46 237.56 112.33 217.56 100.2 237.56 88.08 217.55 75.95 237.55 63.82 217.55 51.7 237.56 39.57 217.56 27.44 237.56 15.32 217.55 3.19 237.55 0.98 233.91 0.98 245.3 3.69 249.77"/><polygon class="cls-2" points="2.19 195.77 14.32 175.77 26.44 195.77 38.57 175.77 50.7 195.77 62.82 175.77 74.95 195.77 87.08 175.77 99.2 195.77 111.33 175.77 123.46 195.77 135.59 175.77 147.71 195.77 159.84 175.77 171.97 195.77 184.09 175.77 196.22 195.77 208.35 175.77 220.48 195.77 232.6 175.77 244.73 195.77 256.86 175.77 268.99 195.77 281.12 175.77 293.24 195.77 305.37 175.77 317.5 195.77 329.63 175.77 341.75 195.77 353.88 175.77 366.01 195.77 378.14 175.77 390.26 195.77 402.39 175.77 414.52 195.77 426.65 175.77 438.78 195.77 450.91 175.77 463.03 195.77 475.16 175.77 487.28 195.77 499.4 175.77 511.53 195.77 523.65 175.77 535.78 195.77 547.91 175.77 560.03 195.77 572.15 175.77 584.28 195.77 596.41 175.77 608.54 195.77 620.66 175.77 632.79 195.77 644.92 175.77 657.04 195.77 669.17 175.77 681.3 195.77 693.43 175.77 705.55 195.77 717.68 175.77 729.81 195.77 741.94 175.77 754.07 195.77 766.2 175.77 778.33 195.77 790.45 175.77 802.58 195.77 814.71 175.77 826.84 195.77 838.97 175.77 851.1 195.77 863.23 175.77 875.36 195.77 887.49 175.77 899.62 195.77 911.75 175.77 923.88 195.77 936.01 175.77 948.14 195.77 960.28 175.77 972.41 195.77 984.54 175.77 996.67 195.77 1008.79 175.77 1020.93 195.77 1033.05 175.77 1045.18 195.77 1057.32 175.77 1069.45 195.77 1081.58 175.77 1093.71 195.77 1105.85 175.77 1117.98 195.77 1130.11 175.77 1142.24 195.77 1154.37 175.77 1166.51 195.77 1178.64 175.77 1181.18 179.95 1181.18 168.56 1178.14 163.55 1166.01 183.55 1153.87 163.55 1141.74 183.55 1129.61 163.55 1117.48 183.55 1105.35 163.55 1093.21 183.55 1081.08 163.55 1068.95 183.55 1056.82 163.55 1044.68 183.55 1032.55 163.55 1020.43 183.55 1008.29 163.55 996.17 183.55 984.04 163.55 971.91 183.55 959.78 163.55 947.64 183.55 935.51 163.55 923.38 183.55 911.25 163.55 899.12 183.55 886.99 163.55 874.86 183.55 862.73 163.55 850.6 183.55 838.47 163.55 826.34 183.55 814.21 163.55 802.08 183.55 789.95 163.55 777.83 183.55 765.7 163.55 753.57 183.55 741.44 163.55 729.31 183.55 717.18 163.55 705.05 183.56 692.93 163.55 680.8 183.55 668.67 163.56 656.54 183.56 644.42 163.55 632.29 183.55 620.16 163.56 608.04 183.56 595.91 163.56 583.78 183.55 571.65 163.56 559.53 183.56 547.41 163.56 535.28 183.56 523.15 163.55 511.03 183.56 498.9 163.56 486.78 183.56 474.66 163.56 462.53 183.56 450.41 163.55 438.28 183.55 426.15 163.55 414.02 183.55 401.89 163.55 389.76 183.55 377.64 163.55 365.51 183.55 353.38 163.55 341.25 183.56 329.13 163.55 317 183.55 304.87 163.55 292.74 183.56 280.62 163.55 268.49 183.55 256.36 163.55 244.23 183.56 232.1 163.55 219.98 183.56 207.85 163.55 195.72 183.55 183.59 163.56 171.47 183.56 159.34 163.55 147.21 183.55 135.09 163.55 122.96 183.56 110.83 163.56 98.7 183.56 86.58 163.55 74.45 183.55 62.32 163.55 50.2 183.56 38.07 163.56 25.94 183.56 13.82 163.55 1.69 183.55 0.98 182.38 0.98 193.77 2.19 195.77"/><polygon class="cls-2" points="1.69 177.77 13.82 157.77 25.94 177.77 38.07 157.77 50.2 177.77 62.32 157.77 74.45 177.77 86.58 157.77 98.7 177.77 110.83 157.77 122.96 177.77 135.09 157.77 147.21 177.77 159.34 157.77 171.47 177.77 183.59 157.77 195.72 177.77 207.85 157.77 219.98 177.77 232.1 157.77 244.23 177.77 256.36 157.77 268.49 177.77 280.62 157.77 292.74 177.77 304.87 157.77 317 177.77 329.13 157.77 341.25 177.77 353.38 157.77 365.51 177.77 377.64 157.77 389.76 177.77 401.89 157.77 414.02 177.77 426.15 157.77 438.28 177.77 450.41 157.77 462.53 177.77 474.66 157.77 486.78 177.77 498.9 157.77 511.03 177.77 523.15 157.77 535.28 177.77 547.41 157.77 559.53 177.77 571.65 157.77 583.78 177.77 595.91 157.77 608.04 177.77 620.16 157.77 632.29 177.77 644.42 157.77 656.54 177.77 668.67 157.77 680.8 177.77 692.93 157.77 705.05 177.77 717.18 157.77 729.31 177.77 741.44 157.77 753.57 177.77 765.7 157.77 777.83 177.77 789.95 157.77 802.08 177.77 814.21 157.77 826.34 177.77 838.47 157.77 850.6 177.77 862.73 157.77 874.86 177.77 886.99 157.77 899.12 177.77 911.25 157.77 923.38 177.77 935.51 157.77 947.64 177.77 959.78 157.77 971.91 177.77 984.04 157.77 996.17 177.77 1008.29 157.77 1020.43 177.77 1032.55 157.77 1044.68 177.77 1056.82 157.77 1068.95 177.77 1081.08 157.77 1093.21 177.77 1105.35 157.77 1117.48 177.77 1129.61 157.77 1141.74 177.77 1153.87 157.77 1166.01 177.77 1178.14 157.77 1181.18 162.77 1181.18 151.38 1177.64 145.55 1165.51 165.55 1153.37 145.55 1141.24 165.55 1129.11 145.55 1116.98 165.55 1104.85 145.55 1092.71 165.55 1080.58 145.55 1068.45 165.55 1056.32 145.55 1044.18 165.55 1032.05 145.55 1019.93 165.55 1007.79 145.55 995.67 165.55 983.54 145.55 971.41 165.55 959.28 145.55 947.14 165.55 935.01 145.55 922.88 165.55 910.75 145.55 898.62 165.55 886.49 145.55 874.36 165.55 862.23 145.55 850.1 165.55 837.97 145.55 825.84 165.55 813.71 145.55 801.58 165.55 789.45 145.55 777.33 165.55 765.2 145.55 753.07 165.55 740.94 145.55 728.81 165.55 716.68 145.55 704.55 165.56 692.43 145.55 680.3 165.55 668.17 145.56 656.04 165.56 643.92 145.55 631.79 165.55 619.66 145.56 607.54 165.56 595.41 145.56 583.28 165.55 571.15 145.56 559.03 165.56 546.91 145.56 534.78 165.56 522.65 145.55 510.53 165.56 498.4 145.56 486.28 165.56 474.16 145.56 462.03 165.56 449.91 145.55 437.78 165.55 425.65 145.55 413.52 165.55 401.39 145.55 389.26 165.55 377.14 145.55 365.01 165.55 352.88 145.55 340.75 165.56 328.63 145.55 316.5 165.55 304.37 145.55 292.24 165.56 280.12 145.55 267.99 165.55 255.86 145.55 243.73 165.56 231.6 145.55 219.48 165.56 207.35 145.55 195.22 165.55 183.09 145.56 170.97 165.56 158.84 145.55 146.71 165.55 134.59 145.55 122.46 165.56 110.33 145.56 98.2 165.56 86.08 145.55 73.95 165.55 61.82 145.55 49.7 165.56 37.57 145.56 25.44 165.56 13.32 145.55 1.19 165.55 0.98 165.21 0.98 176.6 1.69 177.77"/><polygon class="cls-2" points="3.19 231.77 15.32 211.77 27.44 231.77 39.57 211.77 51.7 231.77 63.82 211.77 75.95 231.77 88.08 211.77 100.2 231.77 112.33 211.77 124.46 231.77 136.59 211.77 148.71 231.77 160.84 211.77 172.97 231.77 185.09 211.77 197.22 231.77 209.35 211.77 221.48 231.77 233.6 211.77 245.73 231.77 257.86 211.77 269.99 231.77 282.12 211.77 294.24 231.77 306.37 211.77 318.5 231.77 330.63 211.77 342.75 231.77 354.88 211.77 367.01 231.77 379.14 211.77 391.26 231.77 403.39 211.77 415.52 231.77 427.65 211.77 439.78 231.77 451.91 211.77 464.03 231.77 476.16 211.77 488.28 231.77 500.4 211.77 512.53 231.77 524.65 211.77 536.78 231.77 548.91 211.77 561.03 231.77 573.15 211.77 585.28 231.77 597.41 211.77 609.54 231.77 621.66 211.77 633.79 231.77 645.92 211.77 658.04 231.77 670.17 211.77 682.3 231.77 694.43 211.77 706.55 231.77 718.68 211.77 730.81 231.77 742.94 211.77 755.07 231.77 767.2 211.77 779.33 231.77 791.45 211.77 803.58 231.77 815.71 211.77 827.84 231.77 839.97 211.77 852.1 231.77 864.23 211.77 876.36 231.77 888.49 211.77 900.62 231.77 912.75 211.77 924.88 231.77 937.01 211.77 949.14 231.77 961.28 211.77 973.41 231.77 985.54 211.77 997.67 231.77 1009.79 211.77 1021.93 231.77 1034.05 211.77 1046.18 231.77 1058.32 211.77 1070.45 231.77 1082.58 211.77 1094.71 231.77 1106.85 211.77 1118.98 231.77 1131.11 211.77 1143.24 231.77 1155.37 211.77 1167.51 231.77 1179.64 211.77 1181.18 214.3 1181.18 202.91 1179.14 199.55 1167.01 219.55 1154.87 199.55 1142.74 219.55 1130.61 199.55 1118.48 219.55 1106.35 199.55 1094.21 219.55 1082.08 199.55 1069.95 219.55 1057.82 199.55 1045.68 219.55 1033.55 199.55 1021.43 219.55 1009.29 199.55 997.17 219.55 985.04 199.55 972.91 219.55 960.78 199.55 948.64 219.55 936.51 199.55 924.38 219.55 912.25 199.55 900.12 219.55 887.99 199.55 875.86 219.55 863.73 199.55 851.6 219.55 839.47 199.55 827.34 219.55 815.21 199.55 803.08 219.55 790.95 199.55 778.83 219.55 766.7 199.55 754.57 219.55 742.44 199.55 730.31 219.55 718.18 199.55 706.05 219.56 693.93 199.55 681.8 219.55 669.67 199.56 657.54 219.56 645.42 199.55 633.29 219.55 621.16 199.56 609.04 219.56 596.91 199.56 584.78 219.55 572.65 199.56 560.53 219.56 548.41 199.56 536.28 219.56 524.15 199.55 512.03 219.56 499.9 199.56 487.78 219.56 475.66 199.56 463.53 219.56 451.41 199.55 439.28 219.55 427.15 199.55 415.02 219.55 402.89 199.55 390.76 219.55 378.64 199.55 366.51 219.55 354.38 199.55 342.25 219.56 330.13 199.55 318 219.55 305.87 199.55 293.74 219.56 281.62 199.55 269.49 219.55 257.36 199.55 245.23 219.56 233.1 199.55 220.98 219.56 208.85 199.55 196.72 219.55 184.59 199.56 172.47 219.56 160.34 199.55 148.21 219.55 136.09 199.55 123.96 219.56 111.83 199.56 99.7 219.56 87.58 199.55 75.45 219.55 63.32 199.55 51.2 219.56 39.07 199.56 26.94 219.56 14.82 199.55 2.69 219.55 0.98 216.73 0.98 228.12 3.19 231.77"/><polygon class="cls-2" points="6.19 339.77 18.32 319.77 30.44 339.77 42.57 319.77 54.7 339.77 66.82 319.77 78.95 339.77 91.08 319.77 103.2 339.77 115.33 319.77 127.46 339.77 139.59 319.77 151.71 339.77 163.84 319.77 175.97 339.77 188.09 319.77 200.22 339.77 212.35 319.77 224.48 339.77 236.6 319.77 248.73 339.77 260.86 319.77 272.99 339.77 285.12 319.77 297.24 339.77 309.37 319.77 321.5 339.77 333.63 319.77 345.75 339.77 357.88 319.77 370.01 339.77 382.14 319.77 394.26 339.77 406.39 319.77 418.52 339.77 430.65 319.77 442.78 339.77 454.91 319.77 467.03 339.77 479.16 319.77 491.28 339.77 503.4 319.77 515.53 339.77 527.65 319.77 539.78 339.77 551.91 319.77 564.03 339.77 576.15 319.77 588.28 339.77 600.41 319.77 612.54 339.77 624.66 319.77 636.79 339.77 648.92 319.77 661.04 339.77 673.17 319.77 685.3 339.77 697.43 319.77 709.55 339.77 721.68 319.77 733.81 339.77 745.94 319.77 758.07 339.77 770.2 319.77 782.33 339.77 794.45 319.77 806.58 339.77 818.71 319.77 830.84 339.77 842.97 319.77 855.1 339.77 867.23 319.77 879.36 339.77 891.49 319.77 903.62 339.77 915.75 319.77 927.88 339.77 940.01 319.77 952.14 339.77 964.28 319.77 976.41 339.77 988.54 319.77 1000.67 339.77 1012.79 319.77 1024.93 339.77 1037.05 319.77 1049.18 339.77 1061.32 319.77 1073.45 339.77 1085.58 319.77 1097.71 339.77 1109.85 319.77 1121.98 339.77 1134.11 319.77 1146.24 339.77 1158.37 319.77 1170.51 339.77 1181.18 322.18 1181.18 309.14 1170.01 327.55 1157.87 307.55 1145.74 327.55 1133.61 307.55 1121.48 327.55 1109.35 307.55 1097.21 327.55 1085.08 307.55 1072.95 327.55 1060.82 307.55 1048.68 327.55 1036.55 307.55 1024.43 327.55 1012.29 307.55 1000.17 327.55 988.04 307.55 975.91 327.55 963.78 307.55 951.64 327.55 939.51 307.55 927.38 327.55 915.25 307.55 903.12 327.55 890.99 307.55 878.86 327.55 866.73 307.55 854.6 327.55 842.47 307.55 830.34 327.55 818.21 307.55 806.08 327.55 793.95 307.55 781.83 327.55 769.7 307.55 757.57 327.55 745.44 307.55 733.31 327.55 721.18 307.55 709.05 327.56 696.93 307.55 684.8 327.55 672.67 307.56 660.54 327.56 648.42 307.55 636.29 327.55 624.16 307.56 612.04 327.56 599.91 307.56 587.78 327.55 575.65 307.56 563.53 327.56 551.41 307.56 539.28 327.56 527.15 307.55 515.03 327.56 502.9 307.56 490.78 327.56 478.66 307.56 466.53 327.56 454.41 307.55 442.28 327.55 430.15 307.55 418.02 327.55 405.89 307.55 393.76 327.55 381.64 307.55 369.51 327.55 357.38 307.55 345.25 327.56 333.13 307.55 321 327.55 308.87 307.55 296.74 327.56 284.62 307.55 272.49 327.55 260.36 307.55 248.23 327.56 236.1 307.55 223.98 327.56 211.85 307.55 199.72 327.55 187.59 307.56 175.47 327.56 163.34 307.55 151.21 327.55 139.09 307.55 126.96 327.56 114.83 307.56 102.7 327.56 90.58 307.55 78.45 327.55 66.32 307.55 54.2 327.56 42.07 307.56 29.94 327.56 17.82 307.55 5.69 327.55 0.98 319.79 0.98 331.18 6.19 339.77"/><polygon class="cls-2" points="4.19 267.77 16.32 247.77 28.44 267.77 40.57 247.77 52.7 267.77 64.82 247.77 76.95 267.77 89.08 247.77 101.2 267.77 113.33 247.77 125.46 267.77 137.59 247.77 149.71 267.77 161.84 247.77 173.97 267.77 186.09 247.77 198.22 267.77 210.35 247.77 222.48 267.77 234.6 247.77 246.73 267.77 258.86 247.77 270.99 267.77 283.12 247.77 295.24 267.77 307.37 247.77 319.5 267.77 331.63 247.77 343.75 267.77 355.88 247.77 368.01 267.77 380.14 247.77 392.26 267.77 404.39 247.77 416.52 267.77 428.65 247.77 440.78 267.77 452.91 247.77 465.03 267.77 477.16 247.77 489.28 267.77 501.4 247.77 513.53 267.77 525.65 247.77 537.78 267.77 549.91 247.77 562.03 267.77 574.15 247.77 586.28 267.77 598.41 247.77 610.54 267.77 622.66 247.77 634.79 267.77 646.92 247.77 659.04 267.77 671.17 247.77 683.3 267.77 695.43 247.77 707.55 267.77 719.68 247.77 731.81 267.77 743.94 247.77 756.07 267.77 768.2 247.77 780.33 267.77 792.45 247.77 804.58 267.77 816.71 247.77 828.84 267.77 840.97 247.77 853.1 267.77 865.23 247.77 877.36 267.77 889.49 247.77 901.62 267.77 913.75 247.77 925.88 267.77 938.01 247.77 950.14 267.77 962.28 247.77 974.41 267.77 986.54 247.77 998.67 267.77 1010.79 247.77 1022.93 267.77 1035.05 247.77 1047.18 267.77 1059.32 247.77 1071.45 267.77 1083.58 247.77 1095.71 267.77 1107.85 247.77 1119.98 267.77 1132.11 247.77 1144.24 267.77 1156.37 247.77 1168.51 267.77 1180.64 247.77 1181.18 248.65 1181.18 237.26 1180.14 235.55 1168.01 255.55 1155.87 235.55 1143.74 255.55 1131.61 235.55 1119.48 255.55 1107.35 235.55 1095.21 255.55 1083.08 235.55 1070.95 255.55 1058.82 235.55 1046.68 255.55 1034.55 235.55 1022.43 255.55 1010.29 235.55 998.17 255.55 986.04 235.55 973.91 255.55 961.78 235.55 949.64 255.55 937.51 235.55 925.38 255.55 913.25 235.55 901.12 255.55 888.99 235.55 876.86 255.55 864.73 235.55 852.6 255.55 840.47 235.55 828.34 255.55 816.21 235.55 804.08 255.55 791.95 235.55 779.83 255.55 767.7 235.55 755.57 255.55 743.44 235.55 731.31 255.55 719.18 235.55 707.05 255.56 694.93 235.55 682.8 255.55 670.67 235.56 658.54 255.56 646.42 235.55 634.29 255.55 622.16 235.56 610.04 255.56 597.91 235.56 585.78 255.55 573.65 235.56 561.53 255.56 549.41 235.56 537.28 255.56 525.15 235.55 513.03 255.56 500.9 235.56 488.78 255.56 476.66 235.56 464.53 255.56 452.41 235.55 440.28 255.55 428.15 235.55 416.02 255.55 403.89 235.55 391.76 255.55 379.64 235.55 367.51 255.55 355.38 235.55 343.25 255.56 331.13 235.55 319 255.55 306.87 235.55 294.74 255.56 282.62 235.55 270.49 255.55 258.36 235.55 246.23 255.56 234.1 235.55 221.98 255.56 209.85 235.55 197.72 255.55 185.59 235.56 173.47 255.56 161.34 235.55 149.21 255.55 137.09 235.55 124.96 255.56 112.83 235.56 100.7 255.56 88.58 235.55 76.45 255.55 64.32 235.55 52.2 255.56 40.07 235.56 27.94 255.56 15.82 235.55 3.69 255.55 0.98 251.08 0.98 262.47 4.19 267.77"/><polygon class="cls-2" points="5.19 303.77 17.32 283.77 29.44 303.77 41.57 283.77 53.7 303.77 65.82 283.77 77.95 303.77 90.08 283.77 102.2 303.77 114.33 283.77 126.46 303.77 138.59 283.77 150.71 303.77 162.84 283.77 174.97 303.77 187.09 283.77 199.22 303.77 211.35 283.77 223.48 303.77 235.6 283.77 247.73 303.77 259.86 283.77 271.99 303.77 284.12 283.77 296.24 303.77 308.37 283.77 320.5 303.77 332.63 283.77 344.75 303.77 356.88 283.77 369.01 303.77 381.14 283.77 393.26 303.77 405.39 283.77 417.52 303.77 429.65 283.77 441.78 303.77 453.91 283.77 466.03 303.77 478.16 283.77 490.28 303.77 502.4 283.77 514.53 303.77 526.65 283.77 538.78 303.77 550.91 283.77 563.03 303.77 575.15 283.77 587.28 303.77 599.41 283.77 611.54 303.77 623.66 283.77 635.79 303.77 647.92 283.77 660.04 303.77 672.17 283.77 684.3 303.77 696.43 283.77 708.55 303.77 720.68 283.77 732.81 303.77 744.94 283.77 757.07 303.77 769.2 283.77 781.33 303.77 793.45 283.77 805.58 303.77 817.71 283.77 829.84 303.77 841.97 283.77 854.1 303.77 866.23 283.77 878.36 303.77 890.49 283.77 902.62 303.77 914.75 283.77 926.88 303.77 939.01 283.77 951.14 303.77 963.28 283.77 975.41 303.77 987.54 283.77 999.67 303.77 1011.79 283.77 1023.93 303.77 1036.05 283.77 1048.18 303.77 1060.32 283.77 1072.45 303.77 1084.58 283.77 1096.71 303.77 1108.85 283.77 1120.98 303.77 1133.11 283.77 1145.24 303.77 1157.37 283.77 1169.51 303.77 1181.18 284.54 1181.18 271.61 1181.14 271.55 1169.01 291.55 1156.87 271.55 1144.74 291.55 1132.61 271.55 1120.48 291.55 1108.35 271.55 1096.21 291.55 1084.08 271.55 1071.95 291.55 1059.82 271.55 1047.68 291.55 1035.55 271.55 1023.43 291.55 1011.29 271.55 999.17 291.55 987.04 271.55 974.91 291.55 962.78 271.55 950.64 291.55 938.51 271.55 926.38 291.55 914.25 271.55 902.12 291.55 889.99 271.55 877.86 291.55 865.73 271.55 853.6 291.55 841.47 271.55 829.34 291.55 817.21 271.55 805.08 291.55 792.95 271.55 780.83 291.55 768.7 271.55 756.57 291.55 744.44 271.55 732.31 291.55 720.18 271.55 708.05 291.56 695.93 271.55 683.8 291.55 671.67 271.56 659.54 291.56 647.42 271.55 635.29 291.55 623.16 271.56 611.04 291.56 598.91 271.56 586.78 291.55 574.65 271.56 562.53 291.56 550.41 271.56 538.28 291.56 526.15 271.55 514.03 291.56 501.9 271.56 489.78 291.56 477.66 271.56 465.53 291.56 453.41 271.55 441.28 291.55 429.15 271.55 417.02 291.55 404.89 271.55 392.76 291.55 380.64 271.55 368.51 291.55 356.38 271.55 344.25 291.56 332.13 271.55 320 291.55 307.87 271.55 295.74 291.56 283.62 271.55 271.49 291.55 259.36 271.55 247.23 291.56 235.1 271.55 222.98 291.56 210.85 271.55 198.72 291.55 186.59 271.56 174.47 291.56 162.34 271.55 150.21 291.55 138.09 271.55 125.96 291.56 113.83 271.56 101.7 291.56 89.58 271.55 77.45 291.55 65.32 271.55 53.2 291.56 41.07 271.56 28.94 291.56 16.82 271.55 4.69 291.55 0.98 285.44 0.98 296.82 5.19 303.77"/><polygon class="cls-2" points="4.69 285.77 16.82 265.77 28.94 285.77 41.07 265.77 53.2 285.77 65.32 265.77 77.45 285.77 89.58 265.77 101.7 285.77 113.83 265.77 125.96 285.77 138.09 265.77 150.21 285.77 162.34 265.77 174.47 285.77 186.59 265.77 198.72 285.77 210.85 265.77 222.98 285.77 235.1 265.77 247.23 285.77 259.36 265.77 271.49 285.77 283.62 265.77 295.74 285.77 307.87 265.77 320 285.77 332.13 265.77 344.25 285.77 356.38 265.77 368.51 285.77 380.64 265.77 392.76 285.77 404.89 265.77 417.02 285.77 429.15 265.77 441.28 285.77 453.41 265.77 465.53 285.77 477.66 265.77 489.78 285.77 501.9 265.77 514.03 285.77 526.15 265.77 538.28 285.77 550.41 265.77 562.53 285.77 574.65 265.77 586.78 285.77 598.91 265.77 611.04 285.77 623.16 265.77 635.29 285.77 647.42 265.77 659.54 285.77 671.67 265.77 683.8 285.77 695.93 265.77 708.05 285.77 720.18 265.77 732.31 285.77 744.44 265.77 756.57 285.77 768.7 265.77 780.83 285.77 792.95 265.77 805.08 285.77 817.21 265.77 829.34 285.77 841.47 265.77 853.6 285.77 865.73 265.77 877.86 285.77 889.99 265.77 902.12 285.77 914.25 265.77 926.38 285.77 938.51 265.77 950.64 285.77 962.78 265.77 974.91 285.77 987.04 265.77 999.17 285.77 1011.29 265.77 1023.43 285.77 1035.55 265.77 1047.68 285.77 1059.82 265.77 1071.95 285.77 1084.08 265.77 1096.21 285.77 1108.35 265.77 1120.48 285.77 1132.61 265.77 1144.74 285.77 1156.87 265.77 1169.01 285.77 1181.14 265.77 1181.18 265.83 1181.18 254.44 1180.64 253.55 1168.51 273.55 1156.37 253.55 1144.24 273.55 1132.11 253.55 1119.98 273.55 1107.85 253.55 1095.71 273.55 1083.58 253.55 1071.45 273.55 1059.32 253.55 1047.18 273.55 1035.05 253.55 1022.93 273.55 1010.79 253.55 998.67 273.55 986.54 253.55 974.41 273.55 962.28 253.55 950.14 273.55 938.01 253.55 925.88 273.55 913.75 253.55 901.62 273.55 889.49 253.55 877.36 273.55 865.23 253.55 853.1 273.55 840.97 253.55 828.84 273.55 816.71 253.55 804.58 273.55 792.45 253.55 780.33 273.55 768.2 253.55 756.07 273.55 743.94 253.55 731.81 273.55 719.68 253.55 707.55 273.56 695.43 253.55 683.3 273.55 671.17 253.56 659.04 273.56 646.92 253.55 634.79 273.55 622.66 253.56 610.54 273.56 598.41 253.56 586.28 273.55 574.15 253.56 562.03 273.56 549.91 253.56 537.78 273.56 525.65 253.55 513.53 273.56 501.4 253.56 489.28 273.56 477.16 253.56 465.03 273.56 452.91 253.55 440.78 273.55 428.65 253.55 416.52 273.55 404.39 253.55 392.26 273.55 380.14 253.55 368.01 273.55 355.88 253.55 343.75 273.56 331.63 253.55 319.5 273.55 307.37 253.55 295.24 273.56 283.12 253.55 270.99 273.55 258.86 253.55 246.73 273.56 234.6 253.55 222.48 273.56 210.35 253.55 198.22 273.55 186.09 253.56 173.97 273.56 161.84 253.55 149.71 273.55 137.59 253.55 125.46 273.56 113.33 253.56 101.2 273.56 89.08 253.55 76.95 273.55 64.82 253.55 52.7 273.56 40.57 253.56 28.44 273.56 16.32 253.55 4.19 273.55 0.98 268.26 0.98 279.65 4.69 285.77"/><polygon class="cls-2" points="5.69 321.77 17.82 301.77 29.94 321.77 42.07 301.77 54.2 321.77 66.32 301.77 78.45 321.77 90.58 301.77 102.7 321.77 114.83 301.77 126.96 321.77 139.09 301.77 151.21 321.77 163.34 301.77 175.47 321.77 187.59 301.77 199.72 321.77 211.85 301.77 223.98 321.77 236.1 301.77 248.23 321.77 260.36 301.77 272.49 321.77 284.62 301.77 296.74 321.77 308.87 301.77 321 321.77 333.13 301.77 345.25 321.77 357.38 301.77 369.51 321.77 381.64 301.77 393.76 321.77 405.89 301.77 418.02 321.77 430.15 301.77 442.28 321.77 454.41 301.77 466.53 321.77 478.66 301.77 490.78 321.77 502.9 301.77 515.03 321.77 527.15 301.77 539.28 321.77 551.41 301.77 563.53 321.77 575.65 301.77 587.78 321.77 599.91 301.77 612.04 321.77 624.16 301.77 636.29 321.77 648.42 301.77 660.54 321.77 672.67 301.77 684.8 321.77 696.93 301.77 709.05 321.77 721.18 301.77 733.31 321.77 745.44 301.77 757.57 321.77 769.7 301.77 781.83 321.77 793.95 301.77 806.08 321.77 818.21 301.77 830.34 321.77 842.47 301.77 854.6 321.77 866.73 301.77 878.86 321.77 890.99 301.77 903.12 321.77 915.25 301.77 927.38 321.77 939.51 301.77 951.64 321.77 963.78 301.77 975.91 321.77 988.04 301.77 1000.17 321.77 1012.29 301.77 1024.43 321.77 1036.55 301.77 1048.68 321.77 1060.82 301.77 1072.95 321.77 1085.08 301.77 1097.21 321.77 1109.35 301.77 1121.48 321.77 1133.61 301.77 1145.74 321.77 1157.87 301.77 1170.01 321.77 1181.18 303.36 1181.18 290.32 1169.51 309.55 1157.37 289.55 1145.24 309.55 1133.11 289.55 1120.98 309.55 1108.85 289.55 1096.71 309.55 1084.58 289.55 1072.45 309.55 1060.32 289.55 1048.18 309.55 1036.05 289.55 1023.93 309.55 1011.79 289.55 999.67 309.55 987.54 289.55 975.41 309.55 963.28 289.55 951.14 309.55 939.01 289.55 926.88 309.55 914.75 289.55 902.62 309.55 890.49 289.55 878.36 309.55 866.23 289.55 854.1 309.55 841.97 289.55 829.84 309.55 817.71 289.55 805.58 309.55 793.45 289.55 781.33 309.55 769.2 289.55 757.07 309.55 744.94 289.55 732.81 309.55 720.68 289.55 708.55 309.56 696.43 289.55 684.3 309.55 672.17 289.56 660.04 309.56 647.92 289.55 635.79 309.55 623.66 289.56 611.54 309.56 599.41 289.56 587.28 309.55 575.15 289.56 563.03 309.56 550.91 289.56 538.78 309.56 526.65 289.55 514.53 309.56 502.4 289.56 490.28 309.56 478.16 289.56 466.03 309.56 453.91 289.55 441.78 309.55 429.65 289.55 417.52 309.55 405.39 289.55 393.26 309.55 381.14 289.55 369.01 309.55 356.88 289.55 344.75 309.56 332.63 289.55 320.5 309.55 308.37 289.55 296.24 309.56 284.12 289.55 271.99 309.55 259.86 289.55 247.73 309.56 235.6 289.55 223.48 309.56 211.35 289.55 199.22 309.55 187.09 289.56 174.97 309.56 162.84 289.55 150.71 309.55 138.59 289.55 126.46 309.56 114.33 289.56 102.2 309.56 90.08 289.55 77.95 309.55 65.82 289.55 53.7 309.56 41.57 289.56 29.44 309.56 17.32 289.55 5.19 309.55 0.98 302.61 0.98 314 5.69 321.77"/><polygon class="cls-2" points="1122.45 0.16 1103.51 0.16 1112.98 15.77 1122.45 0.16"/><polygon class="cls-2" points="1.19 159.77 13.32 139.77 25.44 159.77 37.57 139.77 49.7 159.77 61.82 139.77 73.95 159.77 86.08 139.77 98.2 159.77 110.33 139.77 122.46 159.77 134.59 139.77 146.71 159.77 158.84 139.77 170.97 159.77 183.09 139.77 195.22 159.77 207.35 139.77 219.48 159.77 231.6 139.77 243.73 159.77 255.86 139.77 267.99 159.77 280.12 139.77 292.24 159.77 304.37 139.77 316.5 159.77 328.63 139.77 340.75 159.77 352.88 139.77 365.01 159.77 377.14 139.77 389.26 159.77 401.39 139.77 413.52 159.77 425.65 139.77 437.78 159.77 449.91 139.77 462.03 159.77 474.16 139.77 486.28 159.77 498.4 139.77 510.53 159.77 522.65 139.77 534.78 159.77 546.91 139.77 559.03 159.77 571.15 139.77 583.28 159.77 595.41 139.77 607.54 159.77 619.66 139.77 631.79 159.77 643.92 139.77 656.04 159.77 668.17 139.77 680.3 159.77 692.43 139.77 704.55 159.77 716.68 139.77 728.81 159.77 740.94 139.77 753.07 159.77 765.2 139.77 777.33 159.77 789.45 139.77 801.58 159.77 813.71 139.77 825.84 159.77 837.97 139.77 850.1 159.77 862.23 139.77 874.36 159.77 886.49 139.77 898.62 159.77 910.75 139.77 922.88 159.77 935.01 139.77 947.14 159.77 959.28 139.77 971.41 159.77 983.54 139.77 995.67 159.77 1007.79 139.77 1019.93 159.77 1032.05 139.77 1044.18 159.77 1056.32 139.77 1068.45 159.77 1080.58 139.77 1092.71 159.77 1104.85 139.77 1116.98 159.77 1129.11 139.77 1141.24 159.77 1153.37 139.77 1165.51 159.77 1177.64 139.77 1181.18 145.6 1181.18 134.21 1177.14 127.55 1165.01 147.55 1152.87 127.55 1140.74 147.55 1128.61 127.55 1116.48 147.55 1104.35 127.55 1092.21 147.55 1080.08 127.55 1067.95 147.55 1055.82 127.55 1043.68 147.55 1031.55 127.55 1019.43 147.55 1007.29 127.55 995.17 147.55 983.04 127.55 970.91 147.55 958.78 127.55 946.64 147.55 934.51 127.55 922.38 147.55 910.25 127.55 898.12 147.55 885.99 127.55 873.86 147.55 861.73 127.55 849.6 147.55 837.47 127.55 825.34 147.55 813.21 127.55 801.08 147.55 788.95 127.55 776.83 147.55 764.7 127.55 752.57 147.55 740.44 127.55 728.31 147.55 716.18 127.55 704.05 147.56 691.93 127.55 679.8 147.55 667.67 127.56 655.54 147.56 643.42 127.55 631.29 147.55 619.16 127.56 607.04 147.56 594.91 127.56 582.78 147.55 570.65 127.56 558.53 147.56 546.41 127.56 534.28 147.56 522.15 127.55 510.03 147.56 497.9 127.56 485.78 147.56 473.66 127.56 461.53 147.56 449.41 127.55 437.28 147.55 425.15 127.55 413.02 147.55 400.89 127.55 388.76 147.55 376.64 127.55 364.51 147.55 352.38 127.55 340.25 147.56 328.13 127.55 316 147.55 303.87 127.55 291.74 147.56 279.62 127.55 267.49 147.55 255.36 127.55 243.23 147.56 231.1 127.55 218.98 147.56 206.85 127.55 194.72 147.55 182.59 127.56 170.47 147.56 158.34 127.55 146.21 147.55 134.09 127.55 121.96 147.56 109.83 127.56 97.7 147.56 85.58 127.55 73.45 147.55 61.32 127.55 49.2 147.56 37.07 127.56 24.94 147.56 12.82 127.55 0.98 147.08 0.98 159.42 1.19 159.77"/><polygon class="cls-2" points="1073.91 0.16 1054.98 0.16 1064.45 15.77 1073.91 0.16"/><polygon class="cls-2" points="10.82 49.77 22.94 69.77 35.07 49.77 47.2 69.77 59.32 49.77 71.45 69.77 83.58 49.77 95.7 69.77 107.83 49.77 119.96 69.77 132.09 49.77 144.21 69.77 156.34 49.77 168.47 69.77 180.59 49.77 192.72 69.77 204.85 49.77 216.98 69.77 229.1 49.77 241.23 69.77 253.36 49.77 265.49 69.77 277.62 49.77 289.74 69.77 301.87 49.77 314 69.77 326.13 49.77 338.25 69.77 350.38 49.77 362.51 69.77 374.64 49.77 386.76 69.77 398.89 49.77 411.02 69.77 423.15 49.77 435.28 69.77 447.41 49.77 459.53 69.77 471.66 49.77 483.78 69.77 495.9 49.77 508.03 69.77 520.15 49.77 532.28 69.77 544.41 49.77 556.53 69.77 568.65 49.77 580.78 69.77 592.91 49.77 605.04 69.77 617.16 49.77 629.29 69.77 641.42 49.77 653.54 69.77 665.67 49.77 677.8 69.77 689.93 49.77 702.05 69.77 714.18 49.77 726.31 69.77 738.44 49.77 750.57 69.77 762.7 49.77 774.83 69.77 786.95 49.77 799.08 69.77 811.21 49.77 823.34 69.77 835.47 49.77 847.6 69.77 859.73 49.77 871.86 69.77 883.99 49.77 896.12 69.77 908.25 49.77 920.38 69.77 932.51 49.77 944.64 69.77 956.78 49.77 968.91 69.77 981.04 49.77 993.17 69.77 1005.29 49.77 1017.43 69.77 1029.55 49.77 1041.68 69.77 1053.82 49.77 1065.95 69.77 1078.08 49.77 1090.21 69.77 1102.35 49.77 1114.48 69.77 1126.61 49.77 1138.74 69.77 1150.87 49.77 1163.01 69.77 1175.14 49.77 1181.18 59.72 1181.18 48.33 1174.64 37.55 1162.51 57.55 1150.37 37.55 1138.24 57.55 1126.11 37.55 1113.98 57.55 1101.85 37.55 1089.71 57.55 1077.58 37.55 1065.45 57.55 1053.32 37.55 1041.18 57.55 1029.05 37.55 1016.93 57.55 1004.79 37.55 992.67 57.55 980.54 37.55 968.41 57.55 956.28 37.55 944.14 57.55 932.01 37.55 919.88 57.55 907.75 37.55 895.62 57.55 883.49 37.55 871.36 57.55 859.23 37.55 847.1 57.55 834.97 37.55 822.84 57.55 810.71 37.55 798.58 57.55 786.45 37.55 774.33 57.55 762.2 37.55 750.07 57.55 737.94 37.55 725.81 57.55 713.68 37.55 701.55 57.55 689.43 37.55 677.3 57.55 665.17 37.55 653.04 57.55 640.92 37.55 628.79 57.55 616.66 37.55 604.54 57.55 592.41 37.55 580.28 57.55 568.15 37.55 556.03 57.55 543.91 37.55 531.78 57.55 519.65 37.55 507.53 57.55 495.4 37.55 483.28 57.55 471.16 37.55 459.03 57.55 446.91 37.55 434.78 57.55 422.65 37.55 410.52 57.55 398.39 37.55 386.26 57.55 374.14 37.55 362.01 57.55 349.88 37.55 337.75 57.55 325.63 37.55 313.5 57.55 301.37 37.55 289.24 57.55 277.12 37.55 264.99 57.55 252.86 37.55 240.73 57.55 228.6 37.55 216.48 57.55 204.35 37.55 192.22 57.55 180.09 37.55 167.97 57.55 155.84 37.55 143.71 57.55 131.59 37.55 119.46 57.55 107.33 37.55 95.2 57.55 83.08 37.55 70.95 57.55 58.82 37.55 46.7 57.55 34.57 37.55 22.44 57.55 10.32 37.55 0.98 52.95 0.98 66 10.82 49.77"/><polygon class="cls-2" points="1098.18 0.16 1079.24 0.16 1088.71 15.77 1098.18 0.16"/><path class="cls-2" d="M1,47.17l9.34-15.4,12.12,20,12.13-20,12.13,20,12.12-20L71,51.77l12.13-20,12.13,20,12.12-20,12.13,20,12.12-20,12.13,20,12.13-20,12.13,20,12.12-20,12.13,20,12.13-20,12.13,20,12.12-20,12.13,20,12.13-20,12.13,20,12.13-20,12.12,20,12.13-20,12.13,20,12.13-20,12.12,20,12.13-20,12.13,20,12.13-20,12.12,20,12.13-20,12.13,20,12.13-20,12.13,20,12.13-20,12.12,20,12.13-20,12.12,20,12.12-20,12.13,20,12.12-20,12.13,20,12.13-20,12.12,20,12.13-20,12.12,20,12.13-20,12.13,20,12.12-20,12.13,20,12.13-20,12.13,20,12.12-20,12.13,20,12.13-20,12.13,20,12.12-20,12.13,20,12.13-20,12.13,20,12.12-20,12.13,20,12.13-20,12.13,20,12.13-20,12.13,20,12.13-20,12.13,20,12.13-20,12.13,20,12.13-20,12.13,20,12.13-20,12.13,20,12.13-20,12.13,20,12.14-20,12.13,20,12.13-20,12.13,20,12.13-20,12.13,20,12.12-20,12.13,20,12.14-20,12.13,20,12.13-20,12.13,20,12.14-20,12.13,20,12.13-20,12.13,20,12.13-20,12.14,20,12.13-20,6.54,10.77V41.38a41.06,41.06,0,0,0-2.7-14.68l-4.34-7.15-12.13,20-12.14-20-12.13,20-12.13-20-12.13,20-12.13-20-12.14,20-12.13-20-12.13,20-12.13-20-12.14,20-12.13-20-12.12,20-12.13-20-12.13,20L980,19.55l-12.13,20-12.13-20-12.14,20-12.13-20-12.13,20-12.13-20-12.13,20L883,19.55l-12.13,20-12.13-20-12.13,20-12.13-20-12.13,20-12.13-20-12.13,20L786,19.55l-12.13,20-12.13-20-12.12,20-12.13-20-12.13,20-12.13-20-12.12,20-12.13-20-12.13,20-12.13-20-12.12,20-12.13-20-12.13,20-12.13-20L604,39.56l-12.13-20-12.13,20-12.12-20-12.13,20-12.12-20-12.13,20-12.13-20L507,39.56l-12.13-20-12.12,20-12.12-20-12.13,20-12.12-20-12.13,20-12.13-20L410,39.55l-12.13-20-12.13,20-12.12-20-12.13,20-12.13-20-12.13,20-12.12-20L313,39.55l-12.13-20-12.13,20-12.12-20-12.13,20-12.13-20-12.13,20-12.13-20L216,39.56l-12.13-20-12.13,20-12.13-20-12.12,20-12.13-20-12.13,20-12.13-20L119,39.56l-12.13-20-12.12,20-12.13-20-12.13,20-12.13-20-12.12,20-12.13-20-12.13,20-12.12-20-7.88,13a41.47,41.47,0,0,0-1,8.83Z"/><polygon class="cls-2" points="12.82 121.77 24.94 141.77 37.07 121.77 49.2 141.77 61.32 121.77 73.45 141.77 85.58 121.77 97.7 141.77 109.83 121.77 121.96 141.77 134.09 121.77 146.21 141.77 158.34 121.77 170.47 141.77 182.59 121.77 194.72 141.77 206.85 121.77 218.98 141.77 231.1 121.77 243.23 141.77 255.36 121.77 267.49 141.77 279.62 121.77 291.74 141.77 303.87 121.77 316 141.77 328.13 121.77 340.25 141.77 352.38 121.77 364.51 141.77 376.64 121.77 388.76 141.77 400.89 121.77 413.02 141.77 425.15 121.77 437.28 141.77 449.41 121.77 461.53 141.77 473.66 121.77 485.78 141.77 497.9 121.77 510.03 141.77 522.15 121.77 534.28 141.77 546.41 121.77 558.53 141.77 570.65 121.77 582.78 141.77 594.91 121.77 607.04 141.77 619.16 121.77 631.29 141.77 643.42 121.77 655.54 141.77 667.67 121.77 679.8 141.77 691.93 121.77 704.05 141.77 716.18 121.77 728.31 141.77 740.44 121.77 752.57 141.77 764.7 121.77 776.83 141.77 788.95 121.77 801.08 141.77 813.21 121.77 825.34 141.77 837.47 121.77 849.6 141.77 861.73 121.77 873.86 141.77 885.99 121.77 898.12 141.77 910.25 121.77 922.38 141.77 934.51 121.77 946.64 141.77 958.78 121.77 970.91 141.77 983.04 121.77 995.17 141.77 1007.29 121.77 1019.43 141.77 1031.55 121.77 1043.68 141.77 1055.82 121.77 1067.95 141.77 1080.08 121.77 1092.21 141.77 1104.35 121.77 1116.48 141.77 1128.61 121.77 1140.74 141.77 1152.87 121.77 1165.01 141.77 1177.14 121.77 1181.18 128.42 1181.18 117.03 1176.64 109.55 1164.51 129.55 1152.37 109.55 1140.24 129.55 1128.11 109.55 1115.98 129.55 1103.85 109.55 1091.71 129.55 1079.58 109.55 1067.45 129.55 1055.32 109.55 1043.18 129.55 1031.05 109.55 1018.93 129.55 1006.79 109.55 994.67 129.55 982.54 109.55 970.41 129.55 958.28 109.55 946.14 129.55 934.01 109.55 921.88 129.55 909.75 109.55 897.62 129.55 885.49 109.55 873.36 129.55 861.23 109.55 849.1 129.55 836.97 109.55 824.84 129.55 812.71 109.55 800.58 129.55 788.45 109.55 776.33 129.55 764.2 109.55 752.07 129.55 739.94 109.55 727.81 129.55 715.68 109.55 703.55 129.56 691.43 109.55 679.3 129.55 667.17 109.56 655.04 129.56 642.92 109.55 630.79 129.55 618.66 109.56 606.54 129.56 594.41 109.56 582.28 129.55 570.15 109.56 558.03 129.56 545.91 109.56 533.78 129.56 521.65 109.55 509.53 129.56 497.4 109.56 485.28 129.56 473.16 109.56 461.03 129.56 448.91 109.55 436.78 129.55 424.65 109.55 412.52 129.55 400.39 109.55 388.26 129.55 376.14 109.55 364.01 129.55 351.88 109.55 339.75 129.56 327.63 109.55 315.5 129.55 303.37 109.55 291.24 129.56 279.12 109.55 266.99 129.55 254.86 109.55 242.73 129.56 230.6 109.55 218.48 129.56 206.35 109.55 194.22 129.55 182.09 109.56 169.97 129.56 157.84 109.55 145.71 129.55 133.59 109.55 121.46 129.56 109.33 109.56 97.2 129.56 85.08 109.55 72.95 129.55 60.82 109.55 48.7 129.56 36.57 109.56 24.44 129.56 12.32 109.55 0.98 128.25 0.98 141.29 12.82 121.77"/><polygon class="cls-2" points="11.32 67.77 23.44 87.77 35.57 67.77 47.7 87.77 59.82 67.77 71.95 87.77 84.08 67.77 96.2 87.77 108.33 67.77 120.46 87.77 132.59 67.77 144.71 87.77 156.84 67.77 168.97 87.77 181.09 67.77 193.22 87.77 205.35 67.77 217.48 87.77 229.6 67.77 241.73 87.77 253.86 67.77 265.99 87.77 278.12 67.77 290.24 87.77 302.37 67.77 314.5 87.77 326.63 67.77 338.75 87.77 350.88 67.77 363.01 87.77 375.14 67.77 387.26 87.77 399.39 67.77 411.52 87.77 423.65 67.77 435.78 87.77 447.91 67.77 460.03 87.77 472.16 67.77 484.28 87.77 496.4 67.77 508.53 87.77 520.65 67.77 532.78 87.77 544.91 67.77 557.03 87.77 569.15 67.77 581.28 87.77 593.41 67.77 605.54 87.77 617.66 67.77 629.79 87.77 641.92 67.77 654.04 87.77 666.17 67.77 678.3 87.77 690.43 67.77 702.55 87.77 714.68 67.77 726.81 87.77 738.94 67.77 751.07 87.77 763.2 67.77 775.33 87.77 787.45 67.77 799.58 87.77 811.71 67.77 823.84 87.77 835.97 67.77 848.1 87.77 860.23 67.77 872.36 87.77 884.49 67.77 896.62 87.77 908.75 67.77 920.88 87.77 933.01 67.77 945.14 87.77 957.28 67.77 969.41 87.77 981.54 67.77 993.67 87.77 1005.79 67.77 1017.93 87.77 1030.05 67.77 1042.18 87.77 1054.32 67.77 1066.45 87.77 1078.58 67.77 1090.71 87.77 1102.85 67.77 1114.98 87.77 1127.11 67.77 1139.24 87.77 1151.37 67.77 1163.51 87.77 1175.64 67.77 1181.18 76.89 1181.18 65.5 1175.14 55.55 1163.01 75.55 1150.87 55.55 1138.74 75.55 1126.61 55.55 1114.48 75.55 1102.35 55.55 1090.21 75.55 1078.08 55.55 1065.95 75.55 1053.82 55.55 1041.68 75.55 1029.55 55.55 1017.43 75.55 1005.29 55.55 993.17 75.55 981.04 55.55 968.91 75.55 956.78 55.55 944.64 75.55 932.51 55.55 920.38 75.55 908.25 55.55 896.12 75.55 883.99 55.55 871.86 75.55 859.73 55.55 847.6 75.55 835.47 55.55 823.34 75.55 811.21 55.55 799.08 75.55 786.95 55.55 774.83 75.55 762.7 55.55 750.57 75.55 738.44 55.55 726.31 75.55 714.18 55.55 702.05 75.56 689.93 55.55 677.8 75.55 665.67 55.55 653.54 75.56 641.42 55.55 629.29 75.55 617.16 55.55 605.04 75.56 592.91 55.55 580.78 75.55 568.65 55.55 556.53 75.56 544.41 55.55 532.28 75.56 520.15 55.55 508.03 75.56 495.9 55.55 483.78 75.56 471.66 55.55 459.53 75.56 447.41 55.55 435.28 75.55 423.15 55.55 411.02 75.55 398.89 55.55 386.76 75.55 374.64 55.55 362.51 75.55 350.38 55.55 338.25 75.56 326.13 55.55 314 75.55 301.87 55.55 289.74 75.56 277.62 55.55 265.49 75.55 253.36 55.55 241.23 75.56 229.1 55.55 216.98 75.56 204.85 55.55 192.72 75.55 180.59 55.55 168.47 75.56 156.34 55.55 144.21 75.55 132.09 55.55 119.96 75.56 107.83 55.55 95.7 75.56 83.58 55.55 71.45 75.55 59.32 55.55 47.2 75.56 35.07 55.55 22.94 75.56 10.82 55.55 0.98 71.78 0.98 84.82 11.32 67.77"/><polygon class="cls-2" points="12.32 103.77 24.44 123.77 36.57 103.77 48.7 123.77 60.82 103.77 72.95 123.77 85.08 103.77 97.2 123.77 109.33 103.77 121.46 123.77 133.59 103.77 145.71 123.77 157.84 103.77 169.97 123.77 182.09 103.77 194.22 123.77 206.35 103.77 218.48 123.77 230.6 103.77 242.73 123.77 254.86 103.77 266.99 123.77 279.12 103.77 291.24 123.77 303.37 103.77 315.5 123.77 327.63 103.77 339.75 123.77 351.88 103.77 364.01 123.77 376.14 103.77 388.26 123.77 400.39 103.77 412.52 123.77 424.65 103.77 436.78 123.77 448.91 103.77 461.03 123.77 473.16 103.77 485.28 123.77 497.4 103.77 509.53 123.77 521.65 103.77 533.78 123.77 545.91 103.77 558.03 123.77 570.15 103.77 582.28 123.77 594.41 103.77 606.54 123.77 618.66 103.77 630.79 123.77 642.92 103.77 655.04 123.77 667.17 103.77 679.3 123.77 691.43 103.77 703.55 123.77 715.68 103.77 727.81 123.77 739.94 103.77 752.07 123.77 764.2 103.77 776.33 123.77 788.45 103.77 800.58 123.77 812.71 103.77 824.84 123.77 836.97 103.77 849.1 123.77 861.23 103.77 873.36 123.77 885.49 103.77 897.62 123.77 909.75 103.77 921.88 123.77 934.01 103.77 946.14 123.77 958.28 103.77 970.41 123.77 982.54 103.77 994.67 123.77 1006.79 103.77 1018.93 123.77 1031.05 103.77 1043.18 123.77 1055.32 103.77 1067.45 123.77 1079.58 103.77 1091.71 123.77 1103.85 103.77 1115.98 123.77 1128.11 103.77 1140.24 123.77 1152.37 103.77 1164.51 123.77 1176.64 103.77 1181.18 111.25 1181.18 99.85 1176.14 91.55 1164.01 111.55 1151.87 91.55 1139.74 111.55 1127.61 91.55 1115.48 111.55 1103.35 91.55 1091.21 111.55 1079.08 91.55 1066.95 111.55 1054.82 91.55 1042.68 111.55 1030.55 91.55 1018.43 111.55 1006.29 91.55 994.17 111.55 982.04 91.55 969.91 111.55 957.78 91.55 945.64 111.55 933.51 91.55 921.38 111.55 909.25 91.55 897.12 111.55 884.99 91.55 872.86 111.55 860.73 91.55 848.6 111.55 836.47 91.55 824.34 111.55 812.21 91.55 800.08 111.55 787.95 91.55 775.83 111.55 763.7 91.55 751.57 111.55 739.44 91.55 727.31 111.55 715.18 91.55 703.05 111.56 690.93 91.55 678.8 111.55 666.67 91.56 654.54 111.56 642.42 91.55 630.29 111.55 618.16 91.56 606.04 111.56 593.91 91.56 581.78 111.55 569.65 91.56 557.53 111.56 545.41 91.56 533.28 111.56 521.15 91.55 509.03 111.56 496.9 91.56 484.78 111.56 472.66 91.56 460.53 111.56 448.41 91.55 436.28 111.55 424.15 91.55 412.02 111.55 399.89 91.55 387.76 111.55 375.64 91.55 363.51 111.55 351.38 91.55 339.25 111.56 327.13 91.55 315 111.55 302.87 91.55 290.74 111.56 278.62 91.55 266.49 111.55 254.36 91.55 242.23 111.56 230.1 91.55 217.98 111.56 205.85 91.55 193.72 111.55 181.59 91.56 169.47 111.56 157.34 91.55 145.21 111.55 133.09 91.55 120.96 111.56 108.83 91.56 96.7 111.56 84.58 91.55 72.45 111.55 60.32 91.55 48.2 111.56 36.07 91.56 23.94 111.56 11.82 91.55 0.98 109.43 0.98 122.47 12.32 103.77"/><polygon class="cls-2" points="11.82 85.77 23.94 105.77 36.07 85.77 48.2 105.77 60.32 85.77 72.45 105.77 84.58 85.77 96.7 105.77 108.83 85.77 120.96 105.77 133.09 85.77 145.21 105.77 157.34 85.77 169.47 105.77 181.59 85.77 193.72 105.77 205.85 85.77 217.98 105.77 230.1 85.77 242.23 105.77 254.36 85.77 266.49 105.77 278.62 85.77 290.74 105.77 302.87 85.77 315 105.77 327.13 85.77 339.25 105.77 351.38 85.77 363.51 105.77 375.64 85.77 387.76 105.77 399.89 85.77 412.02 105.77 424.15 85.77 436.28 105.77 448.41 85.77 460.53 105.77 472.66 85.77 484.78 105.77 496.9 85.77 509.03 105.77 521.15 85.77 533.28 105.77 545.41 85.77 557.53 105.77 569.65 85.77 581.78 105.77 593.91 85.77 606.04 105.77 618.16 85.77 630.29 105.77 642.42 85.77 654.54 105.77 666.67 85.77 678.8 105.77 690.93 85.77 703.05 105.77 715.18 85.77 727.31 105.77 739.44 85.77 751.57 105.77 763.7 85.77 775.83 105.77 787.95 85.77 800.08 105.77 812.21 85.77 824.34 105.77 836.47 85.77 848.6 105.77 860.73 85.77 872.86 105.77 884.99 85.77 897.12 105.77 909.25 85.77 921.38 105.77 933.51 85.77 945.64 105.77 957.78 85.77 969.91 105.77 982.04 85.77 994.17 105.77 1006.29 85.77 1018.43 105.77 1030.55 85.77 1042.68 105.77 1054.82 85.77 1066.95 105.77 1079.08 85.77 1091.21 105.77 1103.35 85.77 1115.48 105.77 1127.61 85.77 1139.74 105.77 1151.87 85.77 1164.01 105.77 1176.14 85.77 1181.18 94.07 1181.18 82.68 1175.64 73.55 1163.51 93.55 1151.37 73.55 1139.24 93.55 1127.11 73.55 1114.98 93.55 1102.85 73.55 1090.71 93.55 1078.58 73.55 1066.45 93.55 1054.32 73.55 1042.18 93.55 1030.05 73.55 1017.93 93.55 1005.79 73.55 993.67 93.55 981.54 73.55 969.41 93.55 957.28 73.55 945.14 93.55 933.01 73.55 920.88 93.55 908.75 73.55 896.62 93.55 884.49 73.55 872.36 93.55 860.23 73.55 848.1 93.55 835.97 73.55 823.84 93.55 811.71 73.55 799.58 93.55 787.45 73.55 775.33 93.55 763.2 73.55 751.07 93.55 738.94 73.55 726.81 93.55 714.68 73.55 702.55 93.56 690.43 73.55 678.3 93.55 666.17 73.56 654.04 93.56 641.92 73.55 629.79 93.55 617.66 73.56 605.54 93.56 593.41 73.56 581.28 93.55 569.15 73.56 557.03 93.56 544.91 73.56 532.78 93.56 520.65 73.55 508.53 93.56 496.4 73.56 484.28 93.56 472.16 73.56 460.03 93.56 447.91 73.55 435.78 93.55 423.65 73.55 411.52 93.55 399.39 73.55 387.26 93.55 375.14 73.55 363.01 93.55 350.88 73.55 338.75 93.56 326.63 73.55 314.5 93.55 302.37 73.55 290.24 93.56 278.12 73.55 265.99 93.55 253.86 73.55 241.73 93.56 229.6 73.55 217.48 93.56 205.35 73.55 193.22 93.55 181.09 73.56 168.97 93.56 156.84 73.55 144.71 93.55 132.59 73.55 120.46 93.56 108.33 73.56 96.2 93.56 84.08 73.55 71.95 93.55 59.82 73.55 47.7 93.56 35.57 73.56 23.44 93.56 11.32 73.55 0.98 90.6 0.98 103.64 11.82 85.77"/><polygon class="cls-2" points="71.11 506.73 72.53 506.73 71.82 505.55 71.11 506.73"/><polygon class="cls-2" points="71.32 487.55 59.7 506.73 67.6 506.73 71.82 499.77 76.04 506.73 82.95 506.73 71.32 487.55"/><polygon class="cls-2" points="46.86 506.73 48.28 506.73 47.57 505.56 46.86 506.73"/><polygon class="cls-2" points="22.61 506.73 24.03 506.73 23.32 505.55 22.61 506.73"/><polygon class="cls-2" points="1049.65 0.16 1030.72 0.16 1040.18 15.77 1049.65 0.16"/><polygon class="cls-2" points="47.07 487.56 35.45 506.73 43.35 506.73 47.57 499.77 51.79 506.73 58.69 506.73 47.07 487.56"/><polygon class="cls-2" points="95.58 487.55 83.95 506.73 91.86 506.73 96.08 499.77 100.3 506.73 107.2 506.73 95.58 487.55"/><polygon class="cls-2" points="119.62 506.73 121.04 506.73 120.33 505.56 119.62 506.73"/><polygon class="cls-2" points="22.82 487.55 11.19 506.73 19.1 506.73 23.32 499.77 27.54 506.73 34.44 506.73 22.82 487.55"/><polygon class="cls-2" points="6.69 357.77 18.82 337.77 30.94 357.77 43.07 337.77 55.2 357.77 67.32 337.77 79.45 357.77 91.58 337.77 103.7 357.77 115.83 337.77 127.96 357.77 140.09 337.77 152.21 357.77 164.34 337.77 176.47 357.77 188.59 337.77 200.72 357.77 212.85 337.77 224.98 357.77 237.1 337.77 249.23 357.77 261.36 337.77 273.49 357.77 285.62 337.77 297.74 357.77 309.87 337.77 322 357.77 334.13 337.77 346.25 357.77 358.38 337.77 370.51 357.77 382.64 337.77 394.76 357.77 406.89 337.77 419.02 357.77 431.15 337.77 443.28 357.77 455.41 337.77 467.53 357.77 479.66 337.77 491.78 357.77 503.9 337.77 516.03 357.77 528.15 337.77 540.28 357.77 552.41 337.77 564.53 357.77 576.65 337.77 588.78 357.77 600.91 337.77 613.04 357.77 625.16 337.77 637.29 357.77 649.42 337.77 661.54 357.77 673.67 337.77 685.8 357.77 697.93 337.77 710.05 357.77 722.18 337.77 734.31 357.77 746.44 337.77 758.57 357.77 770.7 337.77 782.83 357.77 794.95 337.77 807.08 357.77 819.21 337.77 831.34 357.77 843.47 337.77 855.6 357.77 867.73 337.77 879.86 357.77 891.99 337.77 904.12 357.77 916.25 337.77 928.38 357.77 940.51 337.77 952.64 357.77 964.78 337.77 976.91 357.77 989.04 337.77 1001.17 357.77 1013.29 337.77 1025.43 357.77 1037.55 337.77 1049.68 357.77 1061.82 337.77 1073.95 357.77 1086.08 337.77 1098.21 357.77 1110.35 337.77 1122.48 357.77 1134.61 337.77 1146.74 357.77 1158.87 337.77 1171.01 357.77 1181.18 341.01 1181.18 327.97 1170.51 345.55 1158.37 325.55 1146.24 345.55 1134.11 325.55 1121.98 345.55 1109.85 325.55 1097.71 345.55 1085.58 325.55 1073.45 345.55 1061.32 325.55 1049.18 345.55 1037.05 325.55 1024.93 345.55 1012.79 325.55 1000.67 345.55 988.54 325.55 976.41 345.55 964.28 325.55 952.14 345.55 940.01 325.55 927.88 345.55 915.75 325.55 903.62 345.55 891.49 325.55 879.36 345.55 867.23 325.55 855.1 345.55 842.97 325.55 830.84 345.55 818.71 325.55 806.58 345.55 794.45 325.55 782.33 345.55 770.2 325.55 758.07 345.55 745.94 325.55 733.81 345.55 721.68 325.55 709.55 345.56 697.43 325.55 685.3 345.55 673.17 325.56 661.04 345.56 648.92 325.55 636.79 345.55 624.66 325.56 612.54 345.56 600.41 325.56 588.28 345.55 576.15 325.56 564.03 345.56 551.91 325.56 539.78 345.56 527.65 325.55 515.53 345.56 503.4 325.56 491.28 345.56 479.16 325.56 467.03 345.56 454.91 325.55 442.78 345.55 430.65 325.55 418.52 345.55 406.39 325.55 394.26 345.55 382.14 325.55 370.01 345.55 357.88 325.55 345.75 345.56 333.63 325.55 321.5 345.55 309.37 325.55 297.24 345.56 285.12 325.55 272.99 345.55 260.86 325.55 248.73 345.56 236.6 325.55 224.48 345.56 212.35 325.55 200.22 345.55 188.09 325.56 175.97 345.56 163.84 325.55 151.71 345.55 139.59 325.55 127.46 345.56 115.33 325.56 103.2 345.56 91.08 325.55 78.95 345.55 66.82 325.55 54.7 345.56 42.57 325.56 30.44 345.56 18.32 325.55 6.19 345.55 0.98 336.96 0.98 348.35 6.69 357.77"/><polygon class="cls-2" points="95.37 506.73 96.79 506.73 96.08 505.55 95.37 506.73"/><polygon class="cls-2" points="119.83 487.56 108.21 506.73 116.11 506.73 120.33 499.77 124.55 506.73 131.46 506.73 119.83 487.56"/><polygon class="cls-2" points="9.19 447.77 21.32 427.77 33.44 447.77 45.57 427.77 57.7 447.77 69.82 427.77 81.95 447.77 94.08 427.77 106.2 447.77 118.33 427.77 130.46 447.77 142.59 427.77 154.71 447.77 166.84 427.77 178.97 447.77 191.09 427.77 203.22 447.77 215.35 427.77 227.48 447.77 239.6 427.77 251.73 447.77 263.86 427.77 275.99 447.77 288.12 427.77 300.24 447.77 312.37 427.77 324.5 447.77 336.63 427.77 348.75 447.77 360.88 427.77 373.01 447.77 385.14 427.77 397.26 447.77 409.39 427.77 421.52 447.77 433.65 427.77 445.78 447.77 457.91 427.77 470.03 447.77 482.16 427.77 494.28 447.77 506.4 427.77 518.53 447.77 530.65 427.77 542.78 447.77 554.91 427.77 567.03 447.77 579.15 427.77 591.28 447.77 603.41 427.77 615.54 447.77 627.66 427.77 639.79 447.77 651.92 427.77 664.04 447.77 676.17 427.77 688.3 447.77 700.43 427.77 712.55 447.77 724.68 427.77 736.81 447.77 748.94 427.77 761.07 447.77 773.2 427.77 785.33 447.77 797.45 427.77 809.58 447.77 821.71 427.77 833.84 447.77 845.97 427.77 858.1 447.77 870.23 427.77 882.36 447.77 894.49 427.77 906.62 447.77 918.75 427.77 930.88 447.77 943.01 427.77 955.14 447.77 967.28 427.77 979.41 447.77 991.54 427.77 1003.67 447.77 1015.79 427.77 1027.93 447.77 1040.05 427.77 1052.18 447.77 1064.32 427.77 1076.45 447.77 1088.58 427.77 1100.71 447.77 1112.85 427.77 1124.98 447.77 1137.11 427.77 1149.24 447.77 1161.37 427.77 1173.51 447.77 1181.18 435.13 1181.18 422.09 1173.01 435.55 1160.87 415.55 1148.74 435.55 1136.61 415.55 1124.48 435.55 1112.35 415.55 1100.21 435.55 1088.08 415.55 1075.95 435.55 1063.82 415.55 1051.68 435.55 1039.55 415.55 1027.43 435.55 1015.29 415.55 1003.17 435.55 991.04 415.55 978.91 435.55 966.78 415.55 954.64 435.55 942.51 415.55 930.38 435.55 918.25 415.55 906.12 435.55 893.99 415.55 881.86 435.55 869.73 415.55 857.6 435.55 845.47 415.55 833.34 435.55 821.21 415.55 809.08 435.55 796.95 415.55 784.83 435.55 772.7 415.55 760.57 435.55 748.44 415.55 736.31 435.55 724.18 415.55 712.05 435.56 699.93 415.55 687.8 435.55 675.67 415.56 663.54 435.56 651.42 415.55 639.29 435.55 627.16 415.56 615.04 435.56 602.91 415.56 590.78 435.55 578.65 415.56 566.53 435.56 554.41 415.56 542.28 435.56 530.15 415.55 518.03 435.56 505.9 415.56 493.78 435.56 481.66 415.56 469.53 435.56 457.41 415.55 445.28 435.55 433.15 415.55 421.02 435.55 408.89 415.55 396.76 435.55 384.64 415.55 372.51 435.55 360.38 415.55 348.25 435.56 336.13 415.55 324 435.55 311.87 415.55 299.74 435.56 287.62 415.55 275.49 435.55 263.36 415.55 251.23 435.56 239.1 415.55 226.98 435.56 214.85 415.55 202.72 435.55 190.59 415.56 178.47 435.56 166.34 415.55 154.21 435.55 142.09 415.55 129.96 435.56 117.83 415.56 105.7 435.56 93.58 415.55 81.45 435.55 69.32 415.55 57.2 435.56 45.07 415.56 32.94 435.56 20.82 415.55 8.69 435.55 0.98 422.84 0.98 434.23 9.19 447.77"/><polygon class="cls-2" points="0.98 491.54 0.98 502.93 3.28 506.73 10.19 506.73 0.98 491.54"/><polygon class="cls-2" points="8.19 411.77 20.32 391.77 32.44 411.77 44.57 391.77 56.7 411.77 68.82 391.77 80.95 411.77 93.08 391.77 105.2 411.77 117.33 391.77 129.46 411.77 141.59 391.77 153.71 411.77 165.84 391.77 177.97 411.77 190.09 391.77 202.22 411.77 214.35 391.77 226.48 411.77 238.6 391.77 250.73 411.77 262.86 391.77 274.99 411.77 287.12 391.77 299.24 411.77 311.37 391.77 323.5 411.77 335.63 391.77 347.75 411.77 359.88 391.77 372.01 411.77 384.14 391.77 396.26 411.77 408.39 391.77 420.52 411.77 432.65 391.77 444.78 411.77 456.91 391.77 469.03 411.77 481.16 391.77 493.28 411.77 505.4 391.77 517.53 411.77 529.65 391.77 541.78 411.77 553.91 391.77 566.03 411.77 578.15 391.77 590.28 411.77 602.41 391.77 614.54 411.77 626.66 391.77 638.79 411.77 650.92 391.77 663.04 411.77 675.17 391.77 687.3 411.77 699.43 391.77 711.55 411.77 723.68 391.77 735.81 411.77 747.94 391.77 760.07 411.77 772.2 391.77 784.33 411.77 796.45 391.77 808.58 411.77 820.71 391.77 832.84 411.77 844.97 391.77 857.1 411.77 869.23 391.77 881.36 411.77 893.49 391.77 905.62 411.77 917.75 391.77 929.88 411.77 942.01 391.77 954.14 411.77 966.28 391.77 978.41 411.77 990.54 391.77 1002.67 411.77 1014.79 391.77 1026.93 411.77 1039.05 391.77 1051.18 411.77 1063.32 391.77 1075.45 411.77 1087.58 391.77 1099.71 411.77 1111.85 391.77 1123.98 411.77 1136.11 391.77 1148.24 411.77 1160.37 391.77 1172.51 411.77 1181.18 397.48 1181.18 384.44 1172.01 399.55 1159.87 379.55 1147.74 399.55 1135.61 379.55 1123.48 399.55 1111.35 379.55 1099.21 399.55 1087.08 379.55 1074.95 399.55 1062.82 379.55 1050.68 399.55 1038.55 379.55 1026.43 399.55 1014.29 379.55 1002.17 399.55 990.04 379.55 977.91 399.55 965.78 379.55 953.64 399.55 941.51 379.55 929.38 399.55 917.25 379.55 905.12 399.55 892.99 379.55 880.86 399.55 868.73 379.55 856.6 399.55 844.47 379.55 832.34 399.55 820.21 379.55 808.08 399.55 795.95 379.55 783.83 399.55 771.7 379.55 759.57 399.55 747.44 379.55 735.31 399.55 723.18 379.55 711.05 399.56 698.93 379.55 686.8 399.55 674.67 379.56 662.54 399.56 650.42 379.55 638.29 399.55 626.16 379.56 614.04 399.56 601.91 379.56 589.78 399.55 577.65 379.56 565.53 399.56 553.41 379.56 541.28 399.56 529.15 379.55 517.03 399.56 504.9 379.56 492.78 399.56 480.66 379.56 468.53 399.56 456.41 379.55 444.28 399.55 432.15 379.55 420.02 399.55 407.89 379.55 395.76 399.55 383.64 379.55 371.51 399.55 359.38 379.55 347.25 399.56 335.13 379.55 323 399.55 310.87 379.55 298.74 399.56 286.62 379.55 274.49 399.55 262.36 379.55 250.23 399.56 238.1 379.55 225.98 399.56 213.85 379.55 201.72 399.55 189.59 379.56 177.47 399.56 165.34 379.55 153.21 399.55 141.09 379.55 128.96 399.56 116.83 379.56 104.7 399.56 92.58 379.55 80.45 399.55 68.32 379.55 56.2 399.56 44.07 379.56 31.94 399.56 19.82 379.55 7.69 399.55 0.98 388.49 0.98 399.88 8.19 411.77"/><polygon class="cls-2" points="7.19 375.77 19.32 355.77 31.44 375.77 43.57 355.77 55.7 375.77 67.82 355.77 79.95 375.77 92.08 355.77 104.2 375.77 116.33 355.77 128.46 375.77 140.59 355.77 152.71 375.77 164.84 355.77 176.97 375.77 189.09 355.77 201.22 375.77 213.35 355.77 225.48 375.77 237.6 355.77 249.73 375.77 261.86 355.77 273.99 375.77 286.12 355.77 298.24 375.77 310.37 355.77 322.5 375.77 334.63 355.77 346.75 375.77 358.88 355.77 371.01 375.77 383.14 355.77 395.26 375.77 407.39 355.77 419.52 375.77 431.65 355.77 443.78 375.77 455.91 355.77 468.03 375.77 480.16 355.77 492.28 375.77 504.4 355.77 516.53 375.77 528.65 355.77 540.78 375.77 552.91 355.77 565.03 375.77 577.15 355.77 589.28 375.77 601.41 355.77 613.54 375.77 625.66 355.77 637.79 375.77 649.92 355.77 662.04 375.77 674.17 355.77 686.3 375.77 698.43 355.77 710.55 375.77 722.68 355.77 734.81 375.77 746.94 355.77 759.07 375.77 771.2 355.77 783.33 375.77 795.45 355.77 807.58 375.77 819.71 355.77 831.84 375.77 843.97 355.77 856.1 375.77 868.23 355.77 880.36 375.77 892.49 355.77 904.62 375.77 916.75 355.77 928.88 375.77 941.01 355.77 953.14 375.77 965.28 355.77 977.41 375.77 989.54 355.77 1001.67 375.77 1013.79 355.77 1025.93 375.77 1038.05 355.77 1050.18 375.77 1062.32 355.77 1074.45 375.77 1086.58 355.77 1098.71 375.77 1110.85 355.77 1122.98 375.77 1135.11 355.77 1147.24 375.77 1159.37 355.77 1171.51 375.77 1181.18 359.83 1181.18 346.79 1171.01 363.55 1158.87 343.55 1146.74 363.55 1134.61 343.55 1122.48 363.55 1110.35 343.55 1098.21 363.55 1086.08 343.55 1073.95 363.55 1061.82 343.55 1049.68 363.55 1037.55 343.55 1025.43 363.55 1013.29 343.55 1001.17 363.55 989.04 343.55 976.91 363.55 964.78 343.55 952.64 363.55 940.51 343.55 928.38 363.55 916.25 343.55 904.12 363.55 891.99 343.55 879.86 363.55 867.73 343.55 855.6 363.55 843.47 343.55 831.34 363.55 819.21 343.55 807.08 363.55 794.95 343.55 782.83 363.55 770.7 343.55 758.57 363.55 746.44 343.55 734.31 363.55 722.18 343.55 710.05 363.56 697.93 343.55 685.8 363.55 673.67 343.56 661.54 363.56 649.42 343.55 637.29 363.55 625.16 343.56 613.04 363.56 600.91 343.56 588.78 363.55 576.65 343.56 564.53 363.56 552.41 343.56 540.28 363.56 528.15 343.55 516.03 363.56 503.9 343.56 491.78 363.56 479.66 343.56 467.53 363.56 455.41 343.55 443.28 363.55 431.15 343.55 419.02 363.55 406.89 343.55 394.76 363.55 382.64 343.55 370.51 363.55 358.38 343.55 346.25 363.56 334.13 343.55 322 363.55 309.87 343.55 297.74 363.56 285.62 343.55 273.49 363.55 261.36 343.55 249.23 363.56 237.1 343.55 224.98 363.56 212.85 343.55 200.72 363.55 188.59 343.56 176.47 363.56 164.34 343.55 152.21 363.55 140.09 343.55 127.96 363.56 115.83 343.56 103.7 363.56 91.58 343.55 79.45 363.55 67.32 343.55 55.2 363.56 43.07 343.56 30.94 363.56 18.82 343.55 6.69 363.55 0.98 354.14 0.98 365.53 7.19 375.77"/><polygon class="cls-2" points="7.69 393.77 19.82 373.77 31.94 393.77 44.07 373.77 56.2 393.77 68.32 373.77 80.45 393.77 92.58 373.77 104.7 393.77 116.83 373.77 128.96 393.77 141.09 373.77 153.21 393.77 165.34 373.77 177.47 393.77 189.59 373.77 201.72 393.77 213.85 373.77 225.98 393.77 238.1 373.77 250.23 393.77 262.36 373.77 274.49 393.77 286.62 373.77 298.74 393.77 310.87 373.77 323 393.77 335.13 373.77 347.25 393.77 359.38 373.77 371.51 393.77 383.64 373.77 395.76 393.77 407.89 373.77 420.02 393.77 432.15 373.77 444.28 393.77 456.41 373.77 468.53 393.77 480.66 373.77 492.78 393.77 504.9 373.77 517.03 393.77 529.15 373.77 541.28 393.77 553.41 373.77 565.53 393.77 577.65 373.77 589.78 393.77 601.91 373.77 614.04 393.77 626.16 373.77 638.29 393.77 650.42 373.77 662.54 393.77 674.67 373.77 686.8 393.77 698.93 373.77 711.05 393.77 723.18 373.77 735.31 393.77 747.44 373.77 759.57 393.77 771.7 373.77 783.83 393.77 795.95 373.77 808.08 393.77 820.21 373.77 832.34 393.77 844.47 373.77 856.6 393.77 868.73 373.77 880.86 393.77 892.99 373.77 905.12 393.77 917.25 373.77 929.38 393.77 941.51 373.77 953.64 393.77 965.78 373.77 977.91 393.77 990.04 373.77 1002.17 393.77 1014.29 373.77 1026.43 393.77 1038.55 373.77 1050.68 393.77 1062.82 373.77 1074.95 393.77 1087.08 373.77 1099.21 393.77 1111.35 373.77 1123.48 393.77 1135.61 373.77 1147.74 393.77 1159.87 373.77 1172.01 393.77 1181.18 378.66 1181.18 365.62 1171.51 381.55 1159.37 361.55 1147.24 381.55 1135.11 361.55 1122.98 381.55 1110.85 361.55 1098.71 381.55 1086.58 361.55 1074.45 381.55 1062.32 361.55 1050.18 381.55 1038.05 361.55 1025.93 381.55 1013.79 361.55 1001.67 381.55 989.54 361.55 977.41 381.55 965.28 361.55 953.14 381.55 941.01 361.55 928.88 381.55 916.75 361.55 904.62 381.55 892.49 361.55 880.36 381.55 868.23 361.55 856.1 381.55 843.97 361.55 831.84 381.55 819.71 361.55 807.58 381.55 795.45 361.55 783.33 381.55 771.2 361.55 759.07 381.55 746.94 361.55 734.81 381.55 722.68 361.55 710.55 381.56 698.43 361.55 686.3 381.55 674.17 361.56 662.04 381.56 649.92 361.55 637.79 381.55 625.66 361.56 613.54 381.56 601.41 361.56 589.28 381.55 577.15 361.56 565.03 381.56 552.91 361.56 540.78 381.56 528.65 361.55 516.53 381.56 504.4 361.56 492.28 381.56 480.16 361.56 468.03 381.56 455.91 361.55 443.78 381.55 431.65 361.55 419.52 381.55 407.39 361.55 395.26 381.55 383.14 361.55 371.01 381.55 358.88 361.55 346.75 381.56 334.63 361.55 322.5 381.55 310.37 361.55 298.24 381.56 286.12 361.55 273.99 381.55 261.86 361.55 249.73 381.56 237.6 361.55 225.48 381.56 213.35 361.55 201.22 381.55 189.09 361.56 176.97 381.56 164.84 361.55 152.71 381.55 140.59 361.55 128.46 381.56 116.33 361.56 104.2 381.56 92.08 361.55 79.95 381.55 67.82 361.55 55.7 381.56 43.57 361.56 31.44 381.56 19.32 361.55 7.19 381.55 0.98 371.31 0.98 382.7 7.69 393.77"/><polygon class="cls-2" points="8.69 429.77 20.82 409.77 32.94 429.77 45.07 409.77 57.2 429.77 69.32 409.77 81.45 429.77 93.58 409.77 105.7 429.77 117.83 409.77 129.96 429.77 142.09 409.77 154.21 429.77 166.34 409.77 178.47 429.77 190.59 409.77 202.72 429.77 214.85 409.77 226.98 429.77 239.1 409.77 251.23 429.77 263.36 409.77 275.49 429.77 287.62 409.77 299.74 429.77 311.87 409.77 324 429.77 336.13 409.77 348.25 429.77 360.38 409.77 372.51 429.77 384.64 409.77 396.76 429.77 408.89 409.77 421.02 429.77 433.15 409.77 445.28 429.77 457.41 409.77 469.53 429.77 481.66 409.77 493.78 429.77 505.9 409.77 518.03 429.77 530.15 409.77 542.28 429.77 554.41 409.77 566.53 429.77 578.65 409.77 590.78 429.77 602.91 409.77 615.04 429.77 627.16 409.77 639.29 429.77 651.42 409.77 663.54 429.77 675.67 409.77 687.8 429.77 699.93 409.77 712.05 429.77 724.18 409.77 736.31 429.77 748.44 409.77 760.57 429.77 772.7 409.77 784.83 429.77 796.95 409.77 809.08 429.77 821.21 409.77 833.34 429.77 845.47 409.77 857.6 429.77 869.73 409.77 881.86 429.77 893.99 409.77 906.12 429.77 918.25 409.77 930.38 429.77 942.51 409.77 954.64 429.77 966.78 409.77 978.91 429.77 991.04 409.77 1003.17 429.77 1015.29 409.77 1027.43 429.77 1039.55 409.77 1051.68 429.77 1063.82 409.77 1075.95 429.77 1088.08 409.77 1100.21 429.77 1112.35 409.77 1124.48 429.77 1136.61 409.77 1148.74 429.77 1160.87 409.77 1173.01 429.77 1181.18 416.3 1181.18 403.26 1172.51 417.55 1160.37 397.55 1148.24 417.55 1136.11 397.55 1123.98 417.55 1111.85 397.55 1099.71 417.55 1087.58 397.55 1075.45 417.55 1063.32 397.55 1051.18 417.55 1039.05 397.55 1026.93 417.55 1014.79 397.55 1002.67 417.55 990.54 397.55 978.41 417.55 966.28 397.55 954.14 417.55 942.01 397.55 929.88 417.55 917.75 397.55 905.62 417.55 893.49 397.55 881.36 417.55 869.23 397.55 857.1 417.55 844.97 397.55 832.84 417.55 820.71 397.55 808.58 417.55 796.45 397.55 784.33 417.55 772.2 397.55 760.07 417.55 747.94 397.55 735.81 417.55 723.68 397.55 711.55 417.56 699.43 397.55 687.3 417.55 675.17 397.56 663.04 417.56 650.92 397.55 638.79 417.55 626.66 397.56 614.54 417.56 602.41 397.56 590.28 417.55 578.15 397.56 566.03 417.56 553.91 397.56 541.78 417.56 529.65 397.55 517.53 417.56 505.4 397.56 493.28 417.56 481.16 397.56 469.03 417.56 456.91 397.55 444.78 417.55 432.65 397.55 420.52 417.55 408.39 397.55 396.26 417.55 384.14 397.55 372.01 417.55 359.88 397.55 347.75 417.56 335.63 397.55 323.5 417.55 311.37 397.55 299.24 417.56 287.12 397.55 274.99 417.55 262.86 397.55 250.73 417.56 238.6 397.55 226.48 417.56 214.35 397.55 202.22 417.55 190.09 397.56 177.97 417.56 165.84 397.55 153.71 417.55 141.59 397.55 129.46 417.56 117.33 397.56 105.2 417.56 93.08 397.55 80.95 417.55 68.82 397.55 56.7 417.56 44.57 397.56 32.44 417.56 20.32 397.55 8.19 417.55 0.98 405.66 0.98 417.05 8.69 429.77"/><polygon class="cls-2" points="1181.18 497.38 1175.51 506.73 1181.18 506.73 1181.18 497.38"/><polygon class="cls-2" points="9.69 465.77 21.82 445.77 33.94 465.77 46.07 445.77 58.2 465.77 70.32 445.77 82.45 465.77 94.58 445.77 106.7 465.77 118.83 445.77 130.96 465.77 143.09 445.77 155.21 465.77 167.34 445.77 179.47 465.77 191.59 445.77 203.72 465.77 215.85 445.77 227.98 465.77 240.1 445.77 252.23 465.77 264.36 445.77 276.49 465.77 288.62 445.77 300.74 465.77 312.87 445.77 325 465.77 337.13 445.77 349.25 465.77 361.38 445.77 373.51 465.77 385.64 445.77 397.76 465.77 409.89 445.77 422.02 465.77 434.15 445.77 446.28 465.77 458.41 445.77 470.53 465.77 482.66 445.77 494.78 465.77 506.9 445.77 519.03 465.77 531.15 445.77 543.28 465.77 555.41 445.77 567.53 465.77 579.65 445.77 591.78 465.77 603.91 445.77 616.04 465.77 628.16 445.77 640.29 465.77 652.42 445.77 664.54 465.77 676.67 445.77 688.8 465.77 700.93 445.77 713.05 465.77 725.18 445.77 737.31 465.77 749.44 445.77 761.57 465.77 773.7 445.77 785.83 465.77 797.95 445.77 810.08 465.77 822.21 445.77 834.34 465.77 846.47 445.77 858.6 465.77 870.73 445.77 882.86 465.77 894.99 445.77 907.12 465.77 919.25 445.77 931.38 465.77 943.51 445.77 955.64 465.77 967.78 445.77 979.91 465.77 992.04 445.77 1004.17 465.77 1016.29 445.77 1028.43 465.77 1040.55 445.77 1052.68 465.77 1064.82 445.77 1076.95 465.77 1089.08 445.77 1101.21 465.77 1113.35 445.77 1125.48 465.77 1137.61 445.77 1149.74 465.77 1161.87 445.77 1174.01 465.77 1181.18 453.95 1181.18 440.91 1173.51 453.55 1161.37 433.55 1149.24 453.55 1137.11 433.55 1124.98 453.55 1112.85 433.55 1100.71 453.55 1088.58 433.55 1076.45 453.55 1064.32 433.55 1052.18 453.55 1040.05 433.55 1027.93 453.55 1015.79 433.55 1003.67 453.55 991.54 433.55 979.41 453.55 967.28 433.55 955.14 453.55 943.01 433.55 930.88 453.55 918.75 433.55 906.62 453.55 894.49 433.55 882.36 453.55 870.23 433.55 858.1 453.55 845.97 433.55 833.84 453.55 821.71 433.55 809.58 453.55 797.45 433.55 785.33 453.55 773.2 433.55 761.07 453.55 748.94 433.55 736.81 453.55 724.68 433.55 712.55 453.56 700.43 433.55 688.3 453.55 676.17 433.56 664.04 453.56 651.92 433.55 639.79 453.55 627.66 433.56 615.54 453.56 603.41 433.56 591.28 453.55 579.15 433.56 567.03 453.56 554.91 433.56 542.78 453.56 530.65 433.55 518.53 453.56 506.4 433.56 494.28 453.56 482.16 433.56 470.03 453.56 457.91 433.55 445.78 453.55 433.65 433.55 421.52 453.55 409.39 433.55 397.26 453.55 385.14 433.55 373.01 453.55 360.88 433.55 348.75 453.56 336.63 433.55 324.5 453.55 312.37 433.55 300.24 453.56 288.12 433.55 275.99 453.55 263.86 433.55 251.73 453.56 239.6 433.55 227.48 453.56 215.35 433.55 203.22 453.55 191.09 433.56 178.97 453.56 166.84 433.55 154.71 453.55 142.59 433.55 130.46 453.56 118.33 433.56 106.2 453.56 94.08 433.55 81.95 453.55 69.82 433.55 57.7 453.56 45.57 433.56 33.44 453.56 21.32 433.55 9.19 453.55 0.98 440.01 0.98 451.4 9.69 465.77"/><polygon class="cls-2" points="10.69 501.77 22.82 481.77 34.94 501.77 47.07 481.77 59.2 501.77 71.32 481.77 83.45 501.77 95.58 481.77 107.7 501.77 119.83 481.77 131.96 501.77 144.09 481.77 156.21 501.77 168.34 481.77 180.47 501.77 192.59 481.77 204.72 501.77 216.85 481.77 228.98 501.77 241.1 481.77 253.23 501.77 265.36 481.77 277.49 501.77 289.62 481.77 301.74 501.77 313.87 481.77 326 501.77 338.13 481.77 350.25 501.77 362.38 481.77 374.51 501.77 386.64 481.77 398.76 501.77 410.89 481.77 423.02 501.77 435.15 481.77 447.28 501.77 459.41 481.77 471.53 501.77 483.66 481.77 495.78 501.77 507.9 481.77 520.03 501.77 532.15 481.77 544.28 501.77 556.41 481.77 568.53 501.77 580.65 481.77 592.78 501.77 604.91 481.77 617.04 501.77 629.16 481.77 641.29 501.77 653.42 481.77 665.54 501.77 677.67 481.77 689.8 501.77 701.93 481.77 714.05 501.77 726.18 481.77 738.31 501.77 750.44 481.77 762.57 501.77 774.7 481.77 786.83 501.77 798.95 481.77 811.08 501.77 823.21 481.77 835.34 501.77 847.47 481.77 859.6 501.77 871.73 481.77 883.86 501.77 895.99 481.77 908.12 501.77 920.25 481.77 932.38 501.77 944.51 481.77 956.64 501.77 968.78 481.77 980.91 501.77 993.04 481.77 1005.17 501.77 1017.29 481.77 1029.43 501.77 1041.55 481.77 1053.68 501.77 1065.82 481.77 1077.95 501.77 1090.08 481.77 1102.21 501.77 1114.35 481.77 1126.48 501.77 1138.61 481.77 1150.74 501.77 1162.87 481.77 1175.01 501.77 1181.18 491.6 1181.18 478.56 1174.51 489.55 1162.37 469.55 1150.24 489.55 1138.11 469.55 1125.98 489.55 1113.85 469.55 1101.71 489.55 1089.58 469.55 1077.45 489.55 1065.32 469.55 1053.18 489.55 1041.05 469.55 1028.93 489.55 1016.79 469.55 1004.67 489.55 992.54 469.55 980.41 489.55 968.28 469.55 956.14 489.55 944.01 469.55 931.88 489.55 919.75 469.55 907.62 489.55 895.49 469.55 883.36 489.55 871.23 469.55 859.1 489.55 846.97 469.55 834.84 489.55 822.71 469.55 810.58 489.55 798.45 469.55 786.33 489.55 774.2 469.55 762.07 489.55 749.94 469.55 737.81 489.55 725.68 469.55 713.55 489.56 701.43 469.55 689.3 489.55 677.17 469.56 665.04 489.56 652.92 469.55 640.79 489.55 628.66 469.56 616.54 489.56 604.41 469.56 592.28 489.55 580.15 469.56 568.03 489.56 555.91 469.56 543.78 489.56 531.65 469.55 519.53 489.56 507.4 469.56 495.28 489.56 483.16 469.56 471.03 489.56 458.91 469.55 446.78 489.55 434.65 469.55 422.52 489.55 410.39 469.55 398.26 489.55 386.14 469.55 374.01 489.55 361.88 469.55 349.75 489.56 337.63 469.55 325.5 489.55 313.37 469.55 301.24 489.56 289.12 469.55 276.99 489.55 264.86 469.55 252.73 489.56 240.6 469.55 228.48 489.56 216.35 469.55 204.22 489.55 192.09 469.56 179.97 489.56 167.84 469.55 155.71 489.55 143.59 469.55 131.46 489.56 119.33 469.56 107.2 489.56 95.08 469.55 82.95 489.55 70.82 469.55 58.7 489.56 46.57 469.56 34.44 489.56 22.32 469.55 10.19 489.55 0.98 474.37 0.98 485.75 10.69 501.77"/><polygon class="cls-2" points="10.19 483.77 22.32 463.77 34.44 483.77 46.57 463.77 58.7 483.77 70.82 463.77 82.95 483.77 95.08 463.77 107.2 483.77 119.33 463.77 131.46 483.77 143.59 463.77 155.71 483.77 167.84 463.77 179.97 483.77 192.09 463.77 204.22 483.77 216.35 463.77 228.48 483.77 240.6 463.77 252.73 483.77 264.86 463.77 276.99 483.77 289.12 463.77 301.24 483.77 313.37 463.77 325.5 483.77 337.63 463.77 349.75 483.77 361.88 463.77 374.01 483.77 386.14 463.77 398.26 483.77 410.39 463.77 422.52 483.77 434.65 463.77 446.78 483.77 458.91 463.77 471.03 483.77 483.16 463.77 495.28 483.77 507.4 463.77 519.53 483.77 531.65 463.77 543.78 483.77 555.91 463.77 568.03 483.77 580.15 463.77 592.28 483.77 604.41 463.77 616.54 483.77 628.66 463.77 640.79 483.77 652.92 463.77 665.04 483.77 677.17 463.77 689.3 483.77 701.43 463.77 713.55 483.77 725.68 463.77 737.81 483.77 749.94 463.77 762.07 483.77 774.2 463.77 786.33 483.77 798.45 463.77 810.58 483.77 822.71 463.77 834.84 483.77 846.97 463.77 859.1 483.77 871.23 463.77 883.36 483.77 895.49 463.77 907.62 483.77 919.75 463.77 931.88 483.77 944.01 463.77 956.14 483.77 968.28 463.77 980.41 483.77 992.54 463.77 1004.67 483.77 1016.79 463.77 1028.93 483.77 1041.05 463.77 1053.18 483.77 1065.32 463.77 1077.45 483.77 1089.58 463.77 1101.71 483.77 1113.85 463.77 1125.98 483.77 1138.11 463.77 1150.24 483.77 1162.37 463.77 1174.51 483.77 1181.18 472.77 1181.18 459.74 1174.01 471.55 1161.87 451.55 1149.74 471.55 1137.61 451.55 1125.48 471.55 1113.35 451.55 1101.21 471.55 1089.08 451.55 1076.95 471.55 1064.82 451.55 1052.68 471.55 1040.55 451.55 1028.43 471.55 1016.29 451.55 1004.17 471.55 992.04 451.55 979.91 471.55 967.78 451.55 955.64 471.55 943.51 451.55 931.38 471.55 919.25 451.55 907.12 471.55 894.99 451.55 882.86 471.55 870.73 451.55 858.6 471.55 846.47 451.55 834.34 471.55 822.21 451.55 810.08 471.55 797.95 451.55 785.83 471.55 773.7 451.55 761.57 471.55 749.44 451.55 737.31 471.55 725.18 451.55 713.05 471.56 700.93 451.55 688.8 471.55 676.67 451.56 664.54 471.56 652.42 451.55 640.29 471.55 628.16 451.56 616.04 471.56 603.91 451.56 591.78 471.55 579.65 451.56 567.53 471.56 555.41 451.56 543.28 471.56 531.15 451.55 519.03 471.56 506.9 451.56 494.78 471.56 482.66 451.56 470.53 471.56 458.41 451.55 446.28 471.55 434.15 451.55 422.02 471.55 409.89 451.55 397.76 471.55 385.64 451.55 373.51 471.55 361.38 451.55 349.25 471.56 337.13 451.55 325 471.55 312.87 451.55 300.74 471.56 288.62 451.55 276.49 471.55 264.36 451.55 252.23 471.56 240.1 451.55 227.98 471.56 215.85 451.55 203.72 471.55 191.59 451.56 179.47 471.56 167.34 451.55 155.21 471.55 143.09 451.55 130.96 471.56 118.83 451.56 106.7 471.56 94.58 451.55 82.45 471.55 70.32 451.55 58.2 471.56 46.07 451.56 33.94 471.56 21.82 451.55 9.69 471.55 0.98 457.19 0.98 468.58 10.19 483.77"/><polygon class="cls-2" points="297.71 0.16 278.78 0.16 288.24 15.77 297.71 0.16"/><polygon class="cls-2" points="346.22 0.16 327.29 0.16 336.75 15.77 346.22 0.16"/><polygon class="cls-2" points="370.47 0.16 351.54 0.16 361.01 15.77 370.47 0.16"/><polygon class="cls-2" points="321.96 0.16 303.03 0.16 312.5 15.77 321.96 0.16"/><polygon class="cls-2" points="144.09 487.55 132.46 506.73 140.37 506.73 144.59 499.77 148.81 506.73 155.71 506.73 144.09 487.55"/><polygon class="cls-2" points="394.73 0.16 375.8 0.16 385.26 15.77 394.73 0.16"/><polygon class="cls-2" points="491.74 0.16 472.82 0.16 482.28 15.77 491.74 0.16"/><polygon class="cls-2" points="273.45 0.16 254.52 0.16 263.99 15.77 273.45 0.16"/><polygon class="cls-2" points="418.99 0.16 400.06 0.16 409.52 15.77 418.99 0.16"/><polygon class="cls-2" points="467.49 0.16 448.57 0.16 458.03 15.77 467.49 0.16"/><polygon class="cls-2" points="443.24 0.16 424.31 0.16 433.78 15.77 443.24 0.16"/><polygon class="cls-2" points="176.43 0.16 157.5 0.16 166.97 15.77 176.43 0.16"/><polygon class="cls-2" points="79.42 0.16 60.49 0.16 69.95 15.77 79.42 0.16"/><polygon class="cls-2" points="103.67 0.16 84.74 0.16 94.2 15.77 103.67 0.16"/><path class="cls-2" d="M10.55,15,21.94,33.77l12.13-20,12.13,20,12.12-20,12.13,20,12.13-20,12.13,20,12.12-20,12.13,20,12.12-20,12.13,20,12.13-20,12.13,20,12.12-20,12.13,20,12.13-20,12.13,20,12.12-20,12.13,20,12.13-20,12.13,20,12.13-20,12.12,20,12.13-20,12.13,20,12.13-20,12.12,20,12.13-20,12.13,20,12.13-20,12.12,20,12.13-20,12.13,20,12.13-20,12.13,20,12.13-20,12.12,20,12.13-20,12.12,20,12.12-20,12.13,20,12.12-20,12.13,20,12.13-20,12.12,20,12.13-20,12.12,20,12.13-20,12.13,20,12.12-20,12.13,20,12.13-20,12.13,20,12.12-20,12.13,20,12.13-20,12.13,20,12.12-20,12.13,20,12.13-20,12.13,20,12.12-20,12.13,20,12.13-20,12.13,20,12.13-20,12.13,20,12.13-20,12.13,20,12.13-20,12.13,20,12.13-20,12.13,20,12.13-20,12.13,20,12.13-20,12.13,20,12.14-20,12.13,20,12.13-20,12.13,20,12.13-20,12.13,20,12.12-20,12.13,20,12.14-20,12.13,20,12.13-20,12.13,20,12.14-20,12.13,20,12.13-20,12.13,20,12.13-20,12.14,20,10.62-17.51a40.37,40.37,0,0,0-4.75-5.2l-6.37,10.49-12.14-20-12.13,20-12.13-20-12.13,20-12.13-20-12.14,20-12.13-20-12.13,20-12.13-20-12.14,20-12.13-20-12.12,20-12.13-20-12.13,20-12.13-20-12.13,20-12.13-20-12.14,20L931,1.55l-12.13,20-12.13-20-12.13,20-12.13-20-12.13,20-12.13-20-12.13,20L834,1.55l-12.13,20-12.13-20-12.13,20-12.13-20-12.13,20-12.13-20-12.12,20-12.13-20-12.13,20-12.13-20-12.12,20-12.13-20-12.13,20-12.13-20-12.12,20-12.13-20-12.13,20-12.13-20-12.12,20-12.13-20-12.13,20-12.12-20L555,21.56l-12.12-20-12.13,20-12.13-20-12.12,20-12.13-20-12.12,20-12.12-20L458,21.56l-12.12-20-12.13,20-12.13-20-12.13,20-12.13-20-12.13,20-12.12-20L361,21.55l-12.13-20-12.13,20-12.12-20-12.13,20-12.13-20-12.13,20-12.12-20L264,21.55l-12.13-20-12.13,20-12.13-20-12.12,20-12.13-20-12.13,20-12.13-20L167,21.56l-12.13-20-12.13,20-12.13-20-12.12,20-12.13-20-12.12,20-12.13-20L70,21.55l-12.13-20-12.12,20-12.13-20-12.13,20-6.64-11A42,42,0,0,0,10.55,15Z"/><polygon class="cls-2" points="249.19 0.16 230.27 0.16 239.73 15.77 249.19 0.16"/><path class="cls-2" d="M29.74,2.08a41.18,41.18,0,0,0-12.6,6.58l4.3,7.11Z"/><polygon class="cls-2" points="127.92 0.16 109 0.16 118.46 15.77 127.92 0.16"/><polygon class="cls-2" points="200.69 0.16 181.76 0.16 191.22 15.77 200.69 0.16"/><polygon class="cls-2" points="224.94 0.16 206.01 0.16 215.48 15.77 224.94 0.16"/><polygon class="cls-2" points="515.99 0.16 497.06 0.16 506.53 15.77 515.99 0.16"/><polygon class="cls-2" points="152.18 0.16 133.25 0.16 142.71 15.77 152.18 0.16"/><polygon class="cls-2" points="952.61 0.16 933.68 0.16 943.14 15.77 952.61 0.16"/><polygon class="cls-2" points="855.57 0.16 836.63 0.16 846.1 15.77 855.57 0.16"/><polygon class="cls-2" points="879.83 0.16 860.89 0.16 870.36 15.77 879.83 0.16"/><polygon class="cls-2" points="807.05 0.16 788.12 0.16 797.58 15.77 807.05 0.16"/><polygon class="cls-2" points="831.31 0.16 812.38 0.16 821.84 15.77 831.31 0.16"/><polygon class="cls-2" points="904.09 0.16 885.16 0.16 894.62 15.77 904.09 0.16"/><polygon class="cls-2" points="782.79 0.16 763.86 0.16 773.33 15.77 782.79 0.16"/><polygon class="cls-2" points="976.87 0.16 957.94 0.16 967.41 15.77 976.87 0.16"/><polygon class="cls-2" points="1001.13 0.16 982.2 0.16 991.67 15.77 1001.13 0.16"/><polygon class="cls-2" points="1025.39 0.16 1006.46 0.16 1015.93 15.77 1025.39 0.16"/><polygon class="cls-2" points="928.35 0.16 909.42 0.16 918.88 15.77 928.35 0.16"/><polygon class="cls-2" points="588.75 0.16 569.82 0.16 579.28 15.77 588.75 0.16"/><polygon class="cls-2" points="637.25 0.16 618.33 0.16 627.79 15.77 637.25 0.16"/><polygon class="cls-2" points="613 0.16 594.08 0.16 603.54 15.77 613 0.16"/><polygon class="cls-2" points="540.24 0.16 521.32 0.16 530.78 15.77 540.24 0.16"/><polygon class="cls-2" points="564.49 0.16 545.57 0.16 555.03 15.77 564.49 0.16"/><polygon class="cls-2" points="685.76 0.16 666.83 0.16 676.3 15.77 685.76 0.16"/><polygon class="cls-2" points="661.51 0.16 642.58 0.16 652.04 15.77 661.51 0.16"/><polygon class="cls-2" points="734.27 0.16 715.35 0.16 724.81 15.77 734.27 0.16"/><polygon class="cls-2" points="710.02 0.16 691.09 0.16 700.55 15.77 710.02 0.16"/><polygon class="cls-2" points="758.53 0.16 739.6 0.16 749.07 15.77 758.53 0.16"/><polygon class="cls-2" points="992.83 506.73 994.25 506.73 993.54 505.55 992.83 506.73"/><polygon class="cls-2" points="847.26 506.73 848.68 506.73 847.97 505.55 847.26 506.73"/><polygon class="cls-2" points="871.73 487.55 860.1 506.73 868.01 506.73 872.23 499.77 876.45 506.73 883.36 506.73 871.73 487.55"/><polygon class="cls-2" points="847.47 487.55 835.84 506.73 843.75 506.73 847.97 499.77 852.19 506.73 859.1 506.73 847.47 487.55"/><polygon class="cls-2" points="823.21 487.55 811.58 506.73 819.49 506.73 823.71 499.77 827.93 506.73 834.84 506.73 823.21 487.55"/><polygon class="cls-2" points="798.74 506.73 800.16 506.73 799.45 505.55 798.74 506.73"/><polygon class="cls-2" points="823 506.73 824.42 506.73 823.71 505.55 823 506.73"/><polygon class="cls-2" points="895.78 506.73 897.2 506.73 896.49 505.55 895.78 506.73"/><polygon class="cls-2" points="677.67 487.56 666.05 506.73 673.95 506.73 678.17 499.77 682.39 506.73 689.3 506.73 677.67 487.56"/><polygon class="cls-2" points="871.52 506.73 872.94 506.73 872.23 505.55 871.52 506.73"/><polygon class="cls-2" points="895.99 487.55 884.36 506.73 892.27 506.73 896.49 499.77 900.71 506.73 907.62 506.73 895.99 487.55"/><polygon class="cls-2" points="920.25 487.55 908.62 506.73 916.53 506.73 920.75 499.77 924.97 506.73 931.88 506.73 920.25 487.55"/><polygon class="cls-2" points="726.18 487.55 714.56 506.73 722.46 506.73 726.68 499.77 730.9 506.73 737.81 506.73 726.18 487.55"/><polygon class="cls-2" points="725.97 506.73 727.39 506.73 726.68 505.55 725.97 506.73"/><polygon class="cls-2" points="701.72 506.73 703.14 506.73 702.43 505.55 701.72 506.73"/><polygon class="cls-2" points="798.95 487.55 787.33 506.73 795.23 506.73 799.45 499.77 803.67 506.73 810.58 506.73 798.95 487.55"/><polygon class="cls-2" points="701.93 487.55 690.3 506.73 698.21 506.73 702.43 499.77 706.65 506.73 713.55 506.73 701.93 487.55"/><polygon class="cls-2" points="677.46 506.73 678.88 506.73 678.17 505.56 677.46 506.73"/><polygon class="cls-2" points="774.48 506.73 775.91 506.73 775.2 505.55 774.48 506.73"/><polygon class="cls-2" points="750.44 487.55 738.81 506.73 746.72 506.73 750.94 499.77 755.16 506.73 762.07 506.73 750.44 487.55"/><polygon class="cls-2" points="774.7 487.55 763.07 506.73 770.98 506.73 775.2 499.77 779.41 506.73 786.32 506.73 774.7 487.55"/><polygon class="cls-2" points="750.23 506.73 751.65 506.73 750.94 505.55 750.23 506.73"/><polygon class="cls-2" points="920.04 506.73 921.46 506.73 920.75 505.55 920.04 506.73"/><polygon class="cls-2" points="1138.61 487.55 1126.98 506.73 1134.89 506.73 1139.11 499.77 1143.33 506.73 1150.24 506.73 1138.61 487.55"/><polygon class="cls-2" points="1114.13 506.73 1115.56 506.73 1114.85 505.55 1114.13 506.73"/><polygon class="cls-2" points="1114.35 487.55 1102.71 506.73 1110.62 506.73 1114.85 499.77 1119.07 506.73 1125.98 506.73 1114.35 487.55"/><polygon class="cls-2" points="143.87 506.73 145.3 506.73 144.59 505.55 143.87 506.73"/><polygon class="cls-2" points="1089.87 506.73 1091.29 506.73 1090.58 505.55 1089.87 506.73"/><polygon class="cls-2" points="1162.66 506.73 1164.09 506.73 1163.37 505.55 1162.66 506.73"/><path class="cls-2" d="M45.7,15.77,55.16.16h-13a41.37,41.37,0,0,0-5.71.41Z"/><path class="cls-2" d="M1137.24,15.77,1146.4.67A41.23,41.23,0,0,0,1140,.16h-12.19Z"/><polygon class="cls-2" points="1090.08 487.55 1078.45 506.73 1086.36 506.73 1090.58 499.77 1094.8 506.73 1101.71 506.73 1090.08 487.55"/><polygon class="cls-2" points="1162.87 487.55 1151.25 506.73 1159.15 506.73 1163.37 499.77 1167.6 506.73 1174.51 506.73 1162.87 487.55"/><polygon class="cls-2" points="1138.4 506.73 1139.82 506.73 1139.11 505.55 1138.4 506.73"/><polygon class="cls-2" points="1065.61 506.73 1067.03 506.73 1066.32 505.55 1065.61 506.73"/><polygon class="cls-2" points="1017.29 487.55 1005.67 506.73 1013.58 506.73 1017.79 499.77 1022.02 506.73 1028.92 506.73 1017.29 487.55"/><polygon class="cls-2" points="993.04 487.55 981.41 506.73 989.32 506.73 993.54 499.77 997.76 506.73 1004.67 506.73 993.04 487.55"/><polygon class="cls-2" points="968.78 487.55 957.14 506.73 965.05 506.73 969.28 499.77 973.5 506.73 980.4 506.73 968.78 487.55"/><polygon class="cls-2" points="944.3 506.73 945.72 506.73 945.01 505.55 944.3 506.73"/><polygon class="cls-2" points="968.56 506.73 969.99 506.73 969.28 505.55 968.56 506.73"/><polygon class="cls-2" points="1041.34 506.73 1042.77 506.73 1042.05 505.55 1041.34 506.73"/><polygon class="cls-2" points="1017.08 506.73 1018.51 506.73 1017.79 505.55 1017.08 506.73"/><polygon class="cls-2" points="1065.82 487.55 1054.19 506.73 1062.1 506.73 1066.32 499.77 1070.54 506.73 1077.45 506.73 1065.82 487.55"/><polygon class="cls-2" points="1041.55 487.55 1029.93 506.73 1037.83 506.73 1042.05 499.77 1046.27 506.73 1053.18 506.73 1041.55 487.55"/><polygon class="cls-2" points="944.51 487.55 932.88 506.73 940.79 506.73 945.01 499.77 949.23 506.73 956.14 506.73 944.51 487.55"/><polygon class="cls-2" points="410.89 487.55 399.27 506.73 407.17 506.73 411.39 499.77 415.61 506.73 422.52 506.73 410.89 487.55"/><polygon class="cls-2" points="313.66 506.73 315.08 506.73 314.37 505.55 313.66 506.73"/><polygon class="cls-2" points="653.21 506.73 654.63 506.73 653.92 505.55 653.21 506.73"/><polygon class="cls-2" points="289.4 506.73 290.83 506.73 290.12 505.55 289.4 506.73"/><polygon class="cls-2" points="337.92 506.73 339.34 506.73 338.63 505.55 337.92 506.73"/><polygon class="cls-2" points="386.64 487.55 375.01 506.73 382.92 506.73 387.14 499.77 391.36 506.73 398.26 506.73 386.64 487.55"/><polygon class="cls-2" points="362.38 487.55 350.75 506.73 358.66 506.73 362.88 499.77 367.1 506.73 374.01 506.73 362.38 487.55"/><polygon class="cls-2" points="386.43 506.73 387.85 506.73 387.14 505.55 386.43 506.73"/><polygon class="cls-2" points="289.62 487.55 277.99 506.73 285.9 506.73 290.12 499.77 294.33 506.73 301.24 506.73 289.62 487.55"/><polygon class="cls-2" points="362.17 506.73 363.59 506.73 362.88 505.55 362.17 506.73"/><polygon class="cls-2" points="338.13 487.55 326.5 506.73 334.41 506.73 338.63 499.77 342.85 506.73 349.75 506.73 338.13 487.55"/><polygon class="cls-2" points="192.59 487.56 180.97 506.73 188.87 506.73 193.09 499.77 197.31 506.73 204.22 506.73 192.59 487.56"/><polygon class="cls-2" points="265.15 506.73 266.57 506.73 265.86 505.55 265.15 506.73"/><polygon class="cls-2" points="168.13 506.73 169.55 506.73 168.84 505.55 168.13 506.73"/><polygon class="cls-2" points="168.34 487.55 156.72 506.73 164.62 506.73 168.84 499.77 173.06 506.73 179.97 506.73 168.34 487.55"/><polygon class="cls-2" points="216.85 487.55 205.22 506.73 213.13 506.73 217.35 499.77 221.57 506.73 228.47 506.73 216.85 487.55"/><polygon class="cls-2" points="192.38 506.73 193.8 506.73 193.09 505.56 192.38 506.73"/><polygon class="cls-2" points="240.89 506.73 242.32 506.73 241.6 505.55 240.89 506.73"/><polygon class="cls-2" points="216.64 506.73 218.06 506.73 217.35 505.55 216.64 506.73"/><polygon class="cls-2" points="265.36 487.55 253.73 506.73 261.64 506.73 265.86 499.77 270.08 506.73 276.99 506.73 265.36 487.55"/><polygon class="cls-2" points="241.1 487.55 229.48 506.73 237.38 506.73 241.6 499.77 245.82 506.73 252.73 506.73 241.1 487.55"/><polygon class="cls-2" points="313.87 487.55 302.24 506.73 310.15 506.73 314.37 499.77 318.59 506.73 325.5 506.73 313.87 487.55"/><polygon class="cls-2" points="580.65 487.56 569.03 506.73 576.94 506.73 581.15 499.77 585.38 506.73 592.28 506.73 580.65 487.56"/><polygon class="cls-2" points="580.45 506.73 581.87 506.73 581.15 505.56 580.45 506.73"/><polygon class="cls-2" points="604.91 487.56 593.28 506.73 601.19 506.73 605.41 499.77 609.63 506.73 616.53 506.73 604.91 487.56"/><polygon class="cls-2" points="556.2 506.73 557.62 506.73 556.91 505.56 556.2 506.73"/><polygon class="cls-2" points="531.94 506.73 533.37 506.73 532.65 505.55 531.94 506.73"/><polygon class="cls-2" points="556.41 487.56 544.78 506.73 552.69 506.73 556.91 499.77 561.13 506.73 568.03 506.73 556.41 487.56"/><polygon class="cls-2" points="410.68 506.73 412.1 506.73 411.39 505.55 410.68 506.73"/><polygon class="cls-2" points="653.42 487.55 641.79 506.73 649.7 506.73 653.92 499.77 658.14 506.73 665.04 506.73 653.42 487.55"/><polygon class="cls-2" points="604.7 506.73 606.12 506.73 605.41 505.56 604.7 506.73"/><polygon class="cls-2" points="629.16 487.56 617.54 506.73 625.44 506.73 629.66 499.77 633.88 506.73 640.79 506.73 629.16 487.56"/><polygon class="cls-2" points="628.95 506.73 630.37 506.73 629.66 505.56 628.95 506.73"/><polygon class="cls-2" points="459.41 487.55 447.78 506.73 455.69 506.73 459.91 499.77 464.13 506.73 471.03 506.73 459.41 487.55"/><polygon class="cls-2" points="434.94 506.73 436.36 506.73 435.65 505.55 434.94 506.73"/><polygon class="cls-2" points="459.19 506.73 460.62 506.73 459.91 505.55 459.19 506.73"/><polygon class="cls-2" points="435.15 487.55 423.52 506.73 431.43 506.73 435.65 499.77 439.87 506.73 446.77 506.73 435.15 487.55"/><polygon class="cls-2" points="532.15 487.55 520.53 506.73 528.43 506.73 532.65 499.77 536.87 506.73 543.78 506.73 532.15 487.55"/><polygon class="cls-2" points="507.69 506.73 509.11 506.73 508.4 505.56 507.69 506.73"/><polygon class="cls-2" points="507.9 487.56 496.28 506.73 504.18 506.73 508.4 499.77 512.62 506.73 519.52 506.73 507.9 487.56"/><polygon class="cls-2" points="483.45 506.73 484.87 506.73 484.16 505.56 483.45 506.73"/><polygon class="cls-2" points="483.66 487.56 472.03 506.73 479.94 506.73 484.16 499.77 488.37 506.73 495.28 506.73 483.66 487.56"/><path class="cls-3" d="M0,506H1180.2a0,0,0,0,1,0,0V697.36a42.14,42.14,0,0,1-42.14,42.14H42.14A42.14,42.14,0,0,1,0,697.36V506a0,0,0,0,1,0,0Z"/><rect class="cls-4" x="550.18" y="80" width="513.93" height="330"/><rect class="cls-5" x="567.65" y="96" width="479" height="298"/></g></g></svg>