<svg xmlns="http://www.w3.org/2000/svg" viewBox="0 0 63.5 96.5"><defs><style>.cls-1{fill:#db9c2e;}.cls-2{fill:#e3b058;}.cls-3{fill:#37661e;}.cls-4{fill:#ad3293;}.cls-5{fill:#b84ea1;}.cls-6{fill:#c66fb3;}</style></defs><title>Asset 11</title><g id="Layer_2" data-name="Layer 2"><g id="flower"><ellipse class="cls-1" cx="30" cy="64.5" rx="30" ry="5"/><path class="cls-2" d="M7,93.5c0,1.66,10.3,3,23,3s23-1.34,23-3l7-29c0,2.76-13.43,5-30,5s-30-2.24-30-5Z"/><path class="cls-3" d="M31.5,64C25,44.89,28.27,34.84,32.87,26H37c-5.78,14-6.43,27.41,0,40Z"/><path class="cls-4" d="M34.51,22.16C33.37,12.5,45.91-3.19,63,8.88c0,0-6.84,19.32-22.79,18.11Z"/><path class="cls-5" d="M39.68,24.81C43.5,24,57.5,23,63.5,35c0,0-12,13-27-5Z"/><path class="cls-4" d="M36.5,28s19,9,3,22c0,0-19.72-11.44-8.36-22.22Z"/><path class="cls-6" d="M30.5,24c-6-2-22-9-29,8,0,0,20,11.5,30.49-3.75Z"/><path class="cls-5" d="M34.5,23c0-6,1-23-21-23,0,0-6.22,14.12,16.89,25.06Z"/><ellipse class="cls-1" cx="35.5" cy="26" rx="5" ry="4"/></g></g></svg>