<svg xmlns="http://www.w3.org/2000/svg" viewBox="0 0 115 184"><defs><style>.cls-1{fill:#5c3727;}.cls-2{fill:#735346;}.cls-3{fill:#654234;}.cls-4{fill:#7f6155;}</style></defs><title>Asset 7</title><g id="Layer_2" data-name="Layer 2"><g id="hat"><path class="cls-1" d="M59,25c29.22,0,53,35,53,78s-23.78,78-53,78S6,146,6,103,29.78,25,59,25m0-3C28.07,22,3,58.26,3,103s25.07,81,56,81,56-36.26,56-81S89.93,22,59,22Z"/><path class="cls-2" d="M62,151.5c-14.32,0-29.35-8.42-41.22-23.1A88,88,0,0,1,1.5,74C1.5,31.27,33.38,1.5,62,1.5c13.89,0,25.68,7.58,34.1,21.92C104.1,37,108.5,56.07,108.5,77s-4.4,39.71-12.4,53.07C87.72,144.09,75.93,151.5,62,151.5Z"/><path class="cls-1" d="M62,3C78.84,3,89.13,14.52,94.8,24.18,102.67,37.57,107,56.33,107,77s-4.33,39.16-12.18,52.3C89.17,138.75,78.89,150,62,150c-13.87,0-28.47-8.22-40.06-22.54A86.48,86.48,0,0,1,3,74,76.49,76.49,0,0,1,21.86,23.14C33.19,10.34,47.82,3,62,3m0-3C31.62,0,0,31.75,0,74s31.62,79,62,79,48-33.75,48-76S92.38,0,62,0Z"/><path class="cls-3" d="M45,47c3,5,11,5,15,2,2-3,5-7,3-10C57,33,45,37,45,47Z"/><path class="cls-3" d="M53,95c-3,0-7,0-8,1-5,8,5,11,10,15,2,1,4-2,4-2C62,104,60,95,53,95Z"/><path class="cls-1" d="M59,32C44.09,32,32,50.58,32,73.5S44.09,115,59,115,86,96.42,86,73.5,73.91,32,59,32Zm0,76s-2,3-4,2c-5-4-15-7-10-15,1-1,5-1,8-1C60,94,62,103,59,108Zm1-59c-4,3-12,3-15-2,0-10,12-14,18-8C65,42,62,46,60,49Z"/><path class="cls-4" d="M60.56,98.5c-.77,0-1.93-.82-3.06-1.61-1.61-1.13-3.43-2.41-5.5-2.41s-4,1.08-5.62,2a8.17,8.17,0,0,1-3.33,1.41,1.46,1.46,0,0,1-1.15-.57C36.64,91.92,33.5,82.81,33.5,73s3.14-18.92,8.4-24.36a3.41,3.41,0,0,1,2.67-1.14A14.83,14.83,0,0,1,47.7,48a19,19,0,0,0,4.3.64A19,19,0,0,0,56.3,48a14.83,14.83,0,0,1,3.13-.51,3.41,3.41,0,0,1,2.67,1.14c5.26,5.44,8.4,14.55,8.4,24.36,0,10.29-3.53,19.93-9.22,25.17A1,1,0,0,1,60.56,98.5Z"/><path class="cls-1" d="M44.57,49a13.86,13.86,0,0,1,2.79.47,20.22,20.22,0,0,0,4.64.68,20.22,20.22,0,0,0,4.64-.68A13.86,13.86,0,0,1,59.43,49a1.94,1.94,0,0,1,1.59.68c5,5.17,8,13.89,8,23.32,0,9.78-3.28,18.92-8.6,23.94a14.61,14.61,0,0,1-2-1.28C56.66,94.47,54.54,93,52,93s-4.64,1.24-6.37,2.24a9.92,9.92,0,0,1-2.54,1.21L43,96.32C38,91.15,35,82.44,35,73s3-18.15,8-23.32A1.94,1.94,0,0,1,44.57,49m14.86-3c-2.3,0-4.81,1.15-7.43,1.15S46.87,46,44.57,46a4.91,4.91,0,0,0-3.75,1.59C35.5,53.1,32,62.42,32,73s3.5,19.9,8.82,25.41a3,3,0,0,0,2.23,1c2.7,0,5.73-3.45,9-3.45,3.06,0,6,4,8.56,4a2.49,2.49,0,0,0,1.73-.72C68.11,93.92,72,84.16,72,73c0-10.58-3.5-19.9-8.82-25.41A4.91,4.91,0,0,0,59.43,46Z"/></g></g></svg>