<svg xmlns="http://www.w3.org/2000/svg" viewBox="0 0 100 54.23"><defs><style>.cls-1{fill:#fff;}.cls-2{fill:#db9c2e;}.cls-3{fill:#c74e2a;}.cls-4,.cls-5{fill:none;stroke-miterlimit:10;stroke-width:3px;}.cls-4{stroke:#ffc306;}.cls-5{stroke:#ce3000;}</style></defs><title>Asset 9</title><g id="Layer_2" data-name="Layer 2"><g id="hot_dog" data-name="hot dog"><ellipse class="cls-1" cx="50" cy="27.58" rx="50" ry="16"/><path class="cls-2" d="M76,10.65l-50.79,27c-5.2,2.76-11.1,1.85-12.87-2.09h0c-1.75-3.89,1.28-9.07,6.5-11.46L70.18.61a6.55,6.55,0,0,1,8.27,2.32h0A5.53,5.53,0,0,1,76,10.65Z"/><path class="cls-3" d="M79,15.8,28.54,44.63c-5.18,3-11.11,2.14-12.93-1.9h0c-1.79-4,1.2-9.39,6.4-12L73.07,5.58a6.42,6.42,0,0,1,8.29,2.23h0A5.81,5.81,0,0,1,79,15.8Z"/><path class="cls-2" d="M22.93,51.11h0C21.1,47,24,41.38,29.24,38.62L80,11.65a6.25,6.25,0,0,1,8.29,2.13h0C94.61,26.4,29.21,65.46,22.93,51.11Z"/><path class="cls-4" d="M71.08,2.9c2.93,10.22-.29,20.22-5.17,14.93S57.42,5,56,14.41s2.46,22.34-3.93,17.12S45.71,13.34,43.89,19s-2.63,28.47-5.45,22.72-12-13.13-13-9.31"/><path class="cls-5" d="M80.5,12.08c-8-7-18.42-8.35-15.71-1.67s8,13.15-1.13,10.41S44.5,9.08,46.5,17.08s13.75,13.5,7.87,12.75S27.5,20.08,31.5,25.08s6.76,16.47,2.88,15.73"/></g></g></svg>