<svg xmlns="http://www.w3.org/2000/svg" viewBox="0 0 241.5 345.59"><defs><style>.cls-1{fill:#381a0c;}.cls-2{fill:#d0a142;}.cls-3{fill:#ce3000;}.cls-4{fill:#b3b3b3;}.cls-5{fill:#5c3727;}</style></defs><title>Asset 13</title><g id="Layer_2" data-name="Layer 2"><g id="jukebox"><path class="cls-1" d="M105.5,1.09c41.42-7,136,19,136,89v226l-31,22.53H11l8-262S49,10.59,105.5,1.09Z"/><path class="cls-2" d="M30.93,266.59v-165a75,75,0,0,1,150,0v165h25v-165c0-55-45-100-100-100h0c-55,0-100,45-100,100v165Z"/><path class="cls-2" d="M140.33,179.3v72.25a34.4,34.4,0,0,1-68.8,0V179.3H48.59v72.25a57.34,57.34,0,0,0,57.34,57.33h0a57.34,57.34,0,0,0,57.34-57.33V179.3Z"/><path class="cls-3" d="M47.43,101.09a58.5,58.5,0,0,1,117,0Z"/><rect class="cls-4" x="48.43" y="110.59" width="115" height="51"/><rect class="cls-3" x="1" y="112.59" width="35.5" height="7.91"/><rect class="cls-3" x="1" y="123.38" width="35.5" height="7.91"/><rect class="cls-3" x="1" y="134.18" width="35.5" height="7.91"/><rect class="cls-3" x="175" y="112.59" width="35.5" height="7.91"/><rect class="cls-3" x="175" y="123.38" width="35.5" height="7.91"/><rect class="cls-3" x="175" y="134.18" width="35.5" height="7.91"/><rect class="cls-5" y="266.59" width="35" height="79"/><rect class="cls-5" x="175" y="266.59" width="35" height="79"/><path class="cls-4" d="M139.5,243.7l.83,2.12V227.87L139.5,230l-8.82-22.49L138,188.82l2.33,6V180.59h-5.56l.55,1.38L128,200.64l-7.86-20h-7.28l-7.86,20L97.68,182l.55-1.38H91.77l.55,1.38-8.82,22.5L74.68,182l.55-1.38h-3.7V190l.47-1.22,8.82,22.5-7.82,20-1.47-3.76v21.23L73,245l7.32,18.67-3.08,7.85A34.28,34.28,0,0,0,80.83,276L83,270.5l4.28,10.94A34.62,34.62,0,0,0,94,284.8l-8.29-21.15L93.5,243.7l8.82,22.5L94.9,285.13a36,36,0,0,0,4.88,1.26L105,273.05l5.33,13.61a33.94,33.94,0,0,0,5-1l-7.62-19.44,8.82-22.5,8.82,22.5-7.27,18.54a33.94,33.94,0,0,0,6.71-3.43l3.24-8.26,1.7,4.33a35.24,35.24,0,0,0,3.73-4.18l-2.75-7ZM83,256.8l-7.32-18.68,7.82-19.94,7.32,18.67Zm3.18-45.48L95,188.82l7.32,18.68L93.5,230Zm18.82,48-8.82-22.5,8.82-22.5,8.82,22.5Zm2.68-51.85L116.5,185l8.82,22.5L116.5,230ZM128,259.35l-8.82-22.5,8.82-22.5,8.82,22.5Z"/></g></g></svg>