<svg xmlns="http://www.w3.org/2000/svg" viewBox="0 0 454.9 263.65"><defs><style>.cls-1{fill:#cbd1c8;}.cls-2{fill:#5a6c50;}.cls-3{fill:#3c5230;}</style></defs><title>Asset 16</title><g id="Layer_2" data-name="Layer 2"><g id="trees"><path class="cls-1" d="M281.35,12.24a2,2,0,0,0-3.48.37l-8.16,25.15a2,2,0,0,1-3.59.17L248.92,1a2,2,0,0,0-3.57.12L232.46,36.71a2,2,0,0,1-3.63,0l-7.64-22.85a2,2,0,0,0-3.58-.16L206.45,37.53a2,2,0,0,1-3.58-.16L197.33,20.9a2,2,0,0,0-3.62-.08l-7.29,18a2,2,0,0,1-3.55.08L170.15,19.48a2.23,2.23,0,0,0-3.81.31l-9.72,24.26a2,2,0,0,1-3.67.24l-2.87-7.57a2,2,0,0,0-3.43-.33l-9,13.17a2,2,0,0,1-3.4-.25L122.84,23.77a2,2,0,0,0-3.35-.32l-7,9.21a2,2,0,0,1-3.32-.25L99.48,13.16a2,2,0,0,0-3.54.13L87.49,34.92a2,2,0,0,1-3.62-.09l-6.7-20.94a2,2,0,0,0-3.58-.2L62.94,36.05a2,2,0,0,1-3.37.24L47,18.65a2,2,0,0,0-3.34.2l-6.64,13a2,2,0,0,1-3.46,0L19.9,5.45a2,2,0,0,0-3.53.17L.48,38.79a1.4,1.4,0,0,0,0,.5V191c0,.94-1.07,1.7,0,1.7H293.09A1.81,1.81,0,0,0,295,191L300.9,42.87C300.92,42.56,281.35,12.24,281.35,12.24Z"/><path class="cls-2" d="M321.89,85,301.22,60.2c-.89-1.07-3.23-.87-3.72.31l-8.74,21c-.53,1.28-3.11,1.38-3.84.15L266.5,50.87c-.72-1.21-3.25-1.14-3.82.1l-13.8,29.65c-.61,1.31-3.33,1.28-3.89,0l-8.18-19c-.54-1.26-3.1-1.35-3.83-.13L221,81.3c-.73,1.21-3.29,1.12-3.83-.14l-5.94-13.73c-.56-1.29-3.2-1.34-3.86-.07l-7.82,15c-.62,1.2-3.07,1.25-3.79.07L182.17,66.25c-1-1.15-3.44-1-4.08.25L167.68,86.73c-.36,1.43-3.26,1.58-3.93.2l-3.07-6.31c-.55-1.13-2.78-1.3-3.68-.27l-9.61,11c-.86,1-3,.87-3.63-.21l-12.24-21.3a2.53,2.53,0,0,0-3.59-.26l-7.47,7.68a2.55,2.55,0,0,1-3.55-.21L106.5,61c-.75-1.16-3.18-1.08-3.78.12l-9,18c-.65,1.3-3.34,1.24-3.88-.07L82.62,61.58c-.52-1.27-3.09-1.38-3.83-.16L67.38,80.06a2.52,2.52,0,0,1-3.6.2L50.37,65.55a2.54,2.54,0,0,0-3.58.17L39.68,76.54a2.51,2.51,0,0,1-3.71,0l-14.67-22c-.76-1.16-3.19-1.07-3.78.13L.51,82.35c-.06.13,0,.27,0,.41V209.23c0,.78-1.14,1.42,0,1.42,0,0,389.36,19.75,389.39,19L322.16,85.75A1.06,1.06,0,0,0,321.89,85Z"/><path class="cls-3" d="M.45,263.65s-.19-140.82,0-141l51.92-11.6c.88-.85,3.18-.7,3.67.24l8.63,16.53c.53,1,3.07,1.08,3.8.12l18.19-24.26c.71-1,3.2-.89,3.77.09l13.63,23.37c.6,1,3.28,1,3.84,0l8.07-15c.54-1,3.07-1.07,3.79-.11l11.8,15.69c.72,1,3.25.89,3.79-.1l5.86-10.83c.55-1,3.16-1.06,3.82,0l7.71,11.82c.62,1,3,1,3.75.06L172.6,107.5c.78-1,3.49-.85,3.84.23L184.25,132c.36,1.12,3.22,1.24,3.88.16l3-5c.55-.89,2.75-1,3.63-.22l9.49,8.66c.86.79,3,.69,3.6-.16L220,118.63c.59-.83,2.64-.95,3.54-.21l7.37,6a3,3,0,0,0,3.51-.16l10.28-12.66c.74-.91,3.14-.86,3.74.09L257.34,126c.64,1,3.3,1,3.83-.06l7.08-13.77c.52-1,3.05-1.09,3.79-.13l11.26,14.7a3,3,0,0,0,3.56.16l13.25-11.6a3,3,0,0,1,3.53.13l7,8.53a2.91,2.91,0,0,0,3.66,0l14.49-17.35c.76-.9,3.16-.83,3.74.11l13.28,21.81a.7.7,0,0,1,.1.33l109,133.82Z"/></g></g></svg>