<svg xmlns="http://www.w3.org/2000/svg" viewBox="0 0 163.94 196.56"><defs><style>.cls-1,.cls-3{fill:none;}.cls-1{stroke:#381a0c;}.cls-1,.cls-2,.cls-3,.cls-4{stroke-miterlimit:10;}.cls-1,.cls-2{stroke-width:3px;}.cls-2{fill:#f8f6f4;stroke:#7a0909;}.cls-3{stroke:#db9c2e;stroke-width:2px;}.cls-4{stroke:#000;}.cls-5{fill:#5c3727;}.cls-6{fill:#c74e2a;}</style></defs><title>Asset 14</title><g id="Layer_2" data-name="Layer 2"><g id="heinz_board" data-name="heinz board"><path class="cls-1" d="M138.66,192.42,162.4,46.66A3.15,3.15,0,0,0,159.73,43l-14-2A3.15,3.15,0,0,1,143,37.51l2.21-15.14a3.15,3.15,0,0,0-1.06-2.85c-9-7.74-31.2-18-61.13-18S29,11.78,19.77,19.51a3.16,3.16,0,0,0-1.08,2.87L20.9,37.51a3.15,3.15,0,0,1-2.68,3.57l-14,2a3.15,3.15,0,0,0-2.67,3.62L25.28,192.42a3.15,3.15,0,0,0,3.1,2.64H135.56A3.15,3.15,0,0,0,138.66,192.42Z"/><path class="cls-2" d="M30.4,188.48,7.75,49.37a1,1,0,0,1,.89-1.21l18.12-2.54a1,1,0,0,0,.89-1.19l-3-20.82a1,1,0,0,1,.4-1c9.43-6.88,31.76-15.42,58-15.42,26.76,0,46.87,8.52,55.88,15.38a1,1,0,0,1,.39,1l-3,20.87a1,1,0,0,0,.9,1.19l18.11,2.54a1.06,1.06,0,0,1,.9,1.21L133.54,188.48a1,1,0,0,1-1,.89H31.44A1,1,0,0,1,30.4,188.48Z"/><path class="cls-3" d="M37,181.58,16.34,55a.26.26,0,0,1,.22-.29L36.16,52a.24.24,0,0,0,.21-.28L32.75,26.84a.25.25,0,0,1,.12-.25c9.37-5.32,28.07-11.82,50.19-11.82,22.8,0,39.52,6.49,48,11.65a.25.25,0,0,1,.12.25l-3.65,25a.24.24,0,0,0,.21.28l19.6,2.75a.26.26,0,0,1,.22.29L127,181.58a.26.26,0,0,1-.25.21H37.21A.25.25,0,0,1,37,181.58Z"/><path class="cls-4" d="M47.87,28.65,50,35.75l8.21-2.51-2.17-7.1,2.22-.67,5.18,17-2.22.68-2.43-8-8.2,2.51,2.43,8-2.19.67-5.18-17Z"/><path class="cls-4" d="M74.65,32.57l-6.13.94,1,6.67L77.24,39l.29,2-10,1.55L64.78,24l9.64-1.48.3,2-7.34,1.13.85,5.85,6.13-.94Z"/><path class="cls-4" d="M84.06,22.15l.33,18.3-3.08,0L81,22.19Z"/><path class="cls-4" d="M88.14,40.34,91,22.19l2.3.41,3.78,10.12a54.17,54.17,0,0,1,2,6.42l.06,0c.18-2.45.48-4.67.92-7.5l1.19-7.6,2,.36-2.84,18.15-2.13-.38L94.51,32a63.34,63.34,0,0,1-2.1-6.6h-.07c-.24,2.31-.53,4.51-1,7.52L90.12,40.7Z"/><path class="cls-4" d="M104.28,40.77l12.11-10.85,0-.08-7.9-2.29.46-1.78,10.51,3.05-.33,1.29L107.1,40.93l0,.07,8.71,2.53-.47,1.78L104,42Z"/><path class="cls-5" d="M58,59h5.84c5,0,7,2.47,7,6.79V67c0,4.3-1.41,5.57-2.82,6.13,1.48.53,3.41,1.79,3.41,6.09v2.28c0,5.2-2,7.88-7.26,7.88H58Zm5.48,12.58c2.66,0,3.46-.93,3.46-4.17V66.14c0-2.62-1-3.76-3.34-3.76H61.92v9.18ZM61.92,86h1.73c2.94,0,3.67-1.35,3.67-4.61v-2c0-3.11-.92-4.45-3.88-4.45H61.92Z"/><path class="cls-5" d="M75,59h5.84c5,0,6.94,2.47,6.94,6.79V67c0,4.3-1.41,5.57-2.82,6.13,1.48.53,3.41,1.79,3.41,6.09v2.28c0,5.2-2,7.88-7.25,7.88H75Zm5.47,12.58c2.66,0,3.46-.93,3.46-4.17V66.14c0-2.62-.94-3.76-3.34-3.76H78.93v9.18ZM78.93,86h1.73c2.94,0,3.68-1.35,3.68-4.61v-2c0-3.11-.93-4.45-3.89-4.45H78.93Z"/><path class="cls-5" d="M105.84,66.8V81.46c0,5.62-2.35,8.34-7.24,8.34s-6.85-2.9-6.85-8.28V66.78c0-5.55,2.68-8.22,7.11-8.22S105.84,61.39,105.84,66.8Zm-9.94-.33V82c0,2.9,1,4.16,2.89,4.16s2.9-1.19,2.9-4.26V66.45c0-2.76-.89-4.18-2.92-4.18S95.9,63.58,95.9,66.47Zm8,20.4,4,3.18-2.42,2.86-4.86-3.84Z"/><path d="M85.62,98.79l-2,4.8c-.83,2-1.69,3-3.19,3-1.83,0-2.61-1.41-2.61-3.43s.77-2.75,2.38-4.08c1.17-1,1.49-1.42,1.49-2.69,0-.83-.14-1.36-.77-1.36s-.78.6-.78,1.36a3.74,3.74,0,0,0,.65,2.46l4.69,7.6H83.62l-4-6.41a5.41,5.41,0,0,1-1-3.49c0-1.85.83-2.91,2.35-2.91s2.31,1,2.31,2.75-.52,2.44-2.21,3.78c-1.23,1-1.52,1.43-1.52,2.85s.41,1.9,1.17,1.9,1.07-.54,1.55-1.72L84,98.79Z"/><path class="cls-6" d="M38.54,110.16H42.1v10.72H47V110.16h3.56v26.6H47v-12.6H42.1v12.6H38.54Z"/><path class="cls-6" d="M65.48,122.38v8.15c0,4.41-2.15,6.55-5.77,6.55S54,134.92,54,130.59v-8.34C54,118,56.37,116,59.83,116S65.48,118.24,65.48,122.38Zm-7.86-.17v8.51c0,1.89.6,3.19,2.16,3.19s2.12-1,2.12-3.25v-8.48c0-1.76-.52-3-2.14-3S57.62,120.22,57.62,122.21Z"/><path class="cls-6" d="M67.21,116.29h2.25v-5H73v5h2.7v3.14H73v12.79c0,1,.16,1.87,1.42,1.87a5.1,5.1,0,0,0,1.18-.12v2.71a6.32,6.32,0,0,1-2.38.37c-2.31,0-3.77-.82-3.77-4.19V119.43H67.21Z"/><path class="cls-6" d="M83.91,110.16h5.33c5.68,0,6.78,3.19,6.78,7.83v10.32c0,4.08-.66,8.45-6.86,8.45H83.91Zm3.57,23.54h1.44c2.91,0,3.47-1.77,3.47-4.83V117.66c0-2.71-.48-4.41-3.48-4.41H87.48Z"/><path class="cls-6" d="M110.54,122.38v8.15c0,4.41-2.15,6.55-5.77,6.55s-5.67-2.16-5.67-6.49v-8.34c0-4.22,2.33-6.28,5.79-6.28S110.54,118.24,110.54,122.38Zm-7.87-.17v8.51c0,1.89.61,3.19,2.17,3.19s2.12-1,2.12-3.25v-8.48c0-1.76-.53-3-2.14-3S102.67,120.22,102.67,122.21Z"/><path class="cls-6" d="M124.78,135.92c0,4.37-.45,8-6,8-4.61,0-5.43-3-5.43-5.23v-.09h3.58v.1a2,2,0,0,0,2,2.24c1.86,0,2.22-1.41,2.22-4.14v-2.4a3.37,3.37,0,0,1-3.41,2c-3.47,0-4.45-2.64-4.45-6.35v-7.93c0-3.13,1.26-6.17,4.88-6.17,2.13,0,3,1,3.36,2.12a11.84,11.84,0,0,1,.18-1.8h3.09c0,1.21-.08,3-.08,5.23Zm-7.85-13.57v7.45c0,2.31.56,3.46,2,3.46,2,0,2.31-1.77,2.31-4.38v-6c0-2-.21-3.67-2.07-3.67C117.65,119.19,116.93,120.22,116.93,122.35Z"/><path d="M44.64,158.17l-.72,5.12H41.51l2.88-17.72h3.36l3,17.72H48.26l-.79-5.12ZM47.18,156c-.49-3.39-.9-6.31-1.09-8.18H46c-.07,1.43-.65,5.3-1,8.18Z"/><path d="M59.93,144.79v14.83c0,1.89,0,2.92,0,3.67H57.69c0-.3-.09-1-.09-1.31a2.37,2.37,0,0,1-2.39,1.53c-2.39,0-2.9-1.9-2.9-4.53v-5.45c0-2.39.92-4.09,3.1-4.09a2.33,2.33,0,0,1,2.15,1v-5.64Zm-5.24,8.89v5.45c0,1.46.35,2.23,1.36,2.23,1.24,0,1.51-1.15,1.51-2.84V154.2c0-1.48-.14-2.61-1.47-2.61C55.07,151.59,54.69,152.39,54.69,153.68Z"/><path d="M64.08,149.65c.43,2.52,1.39,8.16,1.72,11h0c.23-2.66,1.37-8.3,1.79-11H70l-2.92,13.64H64.4l-2.86-13.64Z"/><path d="M73.55,157.06v2.1c0,1.18.25,2.33,1.42,2.33s1.34-1,1.34-2.12v-.09h2.32v.08c0,1.49-.33,4.15-3.62,4.15s-3.78-2-3.78-4.8V154c0-2,.64-4.55,3.78-4.55,2.8,0,3.67,2,3.67,4.54v3.08Zm2.85-1.89v-1.52c0-1.27-.26-2.19-1.4-2.19s-1.43.81-1.43,2.19v1.52Z"/><path d="M80.84,153.84c0-2.76,0-3.54,0-4.19h2.26a9.23,9.23,0,0,1,.09,1.3,2.53,2.53,0,0,1,2.51-1.51c1.59,0,2.76.95,2.76,3.49v10.36H86.06v-9.9c0-1.27-.43-1.8-1.28-1.8-1,0-1.56.53-1.56,2.69v9H80.84Z"/><path d="M89.83,149.65h1.5v-3.3H93.7v3.3h1.79v2.1H93.7v8.52c0,.67.1,1.25.94,1.25a3.7,3.7,0,0,0,.79-.08v1.81a4.24,4.24,0,0,1-1.59.24c-1.54,0-2.51-.55-2.51-2.79v-8.95h-1.5Z"/><path d="M104.52,159.43c0,1.91,0,3.18,0,3.86h-2.27a9.86,9.86,0,0,1-.09-1.34,2.36,2.36,0,0,1-2.51,1.56c-1.2,0-2.68-.54-2.68-3.53V149.65h2.37v9.72c0,1.4.39,2,1.29,2s1.48-.57,1.48-2.69v-9h2.38Z"/><path d="M107.17,154.29c0-2.24,0-3.32,0-4.64h2.26c0,.31.07,1.37.07,2.18a2.93,2.93,0,0,1,3-2.37v2.93c-1.61,0-2.88.64-2.88,3.3v7.6h-2.37Z"/><path d="M116.09,157.06v2.1c0,1.18.25,2.33,1.41,2.33s1.35-1,1.35-2.12v-.09h2.32v.08c0,1.49-.33,4.15-3.63,4.15s-3.77-2-3.77-4.8V154c0-2,.64-4.55,3.78-4.55,2.79,0,3.67,2,3.67,4.54v3.08Zm2.84-1.89v-1.52c0-1.27-.25-2.19-1.39-2.19s-1.43.81-1.43,2.19v1.52Z"/></g></g></svg>