<svg xmlns="http://www.w3.org/2000/svg" viewBox="0 0 575.95 313"><defs><style>.cls-1{fill:#bb8080;}.cls-2{fill:#7a0909;}.cls-3{fill:#a65959;}.cls-4{fill:#903131;}.cls-5{fill:#eae7e5;}.cls-6{fill:#d5d0cc;}.cls-7{fill:#eeeceb;}.cls-8{fill:#dbd6d3;}</style></defs><title>Asset 12</title><g id="Layer_2" data-name="Layer 2"><g id="tabel"><path class="cls-1" d="M138,114,36,222,2,79,116.25,0c24.63,62.17,21.47,114,21.47,114"/><path class="cls-2" d="M2,79S-8,237,17,313H156s7-56,0-91H36S41,157,2,79Z"/><polyline class="cls-3" points="213.51 113.97 137.72 113.97 35.98 222 155.97 222 213.97 114"/><path class="cls-4" d="M213.51,186.5s4.42-44.63,0-72.53L156,222s6,24,0,91Z"/><path class="cls-1" d="M438,114,540,222,574,79,459.7,0c-24.63,62.17-21.47,114-21.47,114"/><path class="cls-2" d="M574,79s10,158-15,234H420s-7-56,0-91H540S535,157,574,79Z"/><polyline class="cls-3" points="362.44 113.97 438.23 113.97 539.98 222 419.98 222 361.98 114"/><path class="cls-4" d="M362.44,186.5s-4.42-44.63,0-72.53L420,222s-6,24,0,91Z"/><ellipse class="cls-5" cx="286.48" cy="246" rx="51.5" ry="24"/><path class="cls-6" d="M281,173.5v68.83c0,2.68,11,2.68,11,0V173.5Z"/><polygon class="cls-7" points="194.97 60 390.98 60 458.98 175 114.97 175 194.97 60"/><rect class="cls-8" x="114.98" y="175" width="344" height="12"/></g></g></svg>